<svg xmlns="http://www.w3.org/2000/svg" width="1920" height="1080" viewBox="0 0 1920 1080">
<defs>
<linearGradient id="bg" x1="0" y1="0" x2="1" y2="1">
<stop offset="0" stop-color="#160f05"/><stop offset="1" stop-color="#070708"/>
</linearGradient>
<radialGradient id="glow" cx="0.7" cy="0.25" r="0.8">
<stop offset="0" stop-color="#D4AF37" stop-opacity="0.35"/>
<stop offset="0.5" stop-color="#D4AF37" stop-opacity="0.08"/>
<stop offset="1" stop-color="#D4AF37" stop-opacity="0"/>
</radialGradient>
<radialGradient id="glow2" cx="0.2" cy="0.85" r="0.7">
<stop offset="0" stop-color="#D4AF37" stop-opacity="0.18"/>
<stop offset="1" stop-color="#D4AF37" stop-opacity="0"/>
</radialGradient>
</defs>
<rect width="1920" height="1080" fill="url(#bg)"/>
<g><line x1="0" y1="0" x2="0" y2="1080" stroke="#ffffff" stroke-opacity="0.03"/><line x1="80" y1="0" x2="80" y2="1080" stroke="#ffffff" stroke-opacity="0.03"/><line x1="160" y1="0" x2="160" y2="1080" stroke="#ffffff" stroke-opacity="0.03"/><line x1="240" y1="0" x2="240" y2="1080" stroke="#ffffff" stroke-opacity="0.03"/><line x1="320" y1="0" x2="320" y2="1080" stroke="#ffffff" stroke-opacity="0.03"/><line x1="400" y1="0" x2="400" y2="1080" stroke="#ffffff" stroke-opacity="0.03"/><line x1="480" y1="0" x2="480" y2="1080" stroke="#ffffff" stroke-opacity="0.03"/><line x1="560" y1="0" x2="560" y2="1080" stroke="#ffffff" stroke-opacity="0.03"/><line x1="640" y1="0" x2="640" y2="1080" stroke="#ffffff" stroke-opacity="0.03"/><line x1="720" y1="0" x2="720" y2="1080" stroke="#ffffff" stroke-opacity="0.03"/><line x1="800" y1="0" x2="800" y2="1080" stroke="#ffffff" stroke-opacity="0.03"/><line x1="880" y1="0" x2="880" y2="1080" stroke="#ffffff" stroke-opacity="0.03"/><line x1="960" y1="0" x2="960" y2="1080" stroke="#ffffff" stroke-opacity="0.03"/><line x1="1040" y1="0" x2="1040" y2="1080" stroke="#ffffff" stroke-opacity="0.03"/><line x1="1120" y1="0" x2="1120" y2="1080" stroke="#ffffff" stroke-opacity="0.03"/><line x1="1200" y1="0" x2="1200" y2="1080" stroke="#ffffff" stroke-opacity="0.03"/><line x1="1280" y1="0" x2="1280" y2="1080" stroke="#ffffff" stroke-opacity="0.03"/><line x1="1360" y1="0" x2="1360" y2="1080" stroke="#ffffff" stroke-opacity="0.03"/><line x1="1440" y1="0" x2="1440" y2="1080" stroke="#ffffff" stroke-opacity="0.03"/><line x1="1520" y1="0" x2="1520" y2="1080" stroke="#ffffff" stroke-opacity="0.03"/><line x1="1600" y1="0" x2="1600" y2="1080" stroke="#ffffff" stroke-opacity="0.03"/><line x1="1680" y1="0" x2="1680" y2="1080" stroke="#ffffff" stroke-opacity="0.03"/><line x1="1760" y1="0" x2="1760" y2="1080" stroke="#ffffff" stroke-opacity="0.03"/><line x1="1840" y1="0" x2="1840" y2="1080" stroke="#ffffff" stroke-opacity="0.03"/><line x1="1920" y1="0" x2="1920" y2="1080" stroke="#ffffff" stroke-opacity="0.03"/><line x1="0" y1="0" x2="1920" y2="0" stroke="#ffffff" stroke-opacity="0.03"/><line x1="0" y1="80" x2="1920" y2="80" stroke="#ffffff" stroke-opacity="0.03"/><line x1="0" y1="160" x2="1920" y2="160" stroke="#ffffff" stroke-opacity="0.03"/><line x1="0" y1="240" x2="1920" y2="240" stroke="#ffffff" stroke-opacity="0.03"/><line x1="0" y1="320" x2="1920" y2="320" stroke="#ffffff" stroke-opacity="0.03"/><line x1="0" y1="400" x2="1920" y2="400" stroke="#ffffff" stroke-opacity="0.03"/><line x1="0" y1="480" x2="1920" y2="480" stroke="#ffffff" stroke-opacity="0.03"/><line x1="0" y1="560" x2="1920" y2="560" stroke="#ffffff" stroke-opacity="0.03"/><line x1="0" y1="640" x2="1920" y2="640" stroke="#ffffff" stroke-opacity="0.03"/><line x1="0" y1="720" x2="1920" y2="720" stroke="#ffffff" stroke-opacity="0.03"/><line x1="0" y1="800" x2="1920" y2="800" stroke="#ffffff" stroke-opacity="0.03"/><line x1="0" y1="880" x2="1920" y2="880" stroke="#ffffff" stroke-opacity="0.03"/><line x1="0" y1="960" x2="1920" y2="960" stroke="#ffffff" stroke-opacity="0.03"/><line x1="0" y1="1040" x2="1920" y2="1040" stroke="#ffffff" stroke-opacity="0.03"/></g>
<rect width="1920" height="1080" fill="url(#glow)"/>
<rect width="1920" height="1080" fill="url(#glow2)"/>
<g><circle cx="999" cy="403" r="0.5" fill="#D4AF37" opacity="0.55"/><circle cx="1033" cy="499" r="1.6" fill="#D4AF37" opacity="0.59"/><circle cx="344" cy="121" r="1.3" fill="#D4AF37" opacity="0.28"/><circle cx="648" cy="421" r="2.3" fill="#D4AF37" opacity="0.10"/><circle cx="1385" cy="710" r="0.9" fill="#D4AF37" opacity="0.11"/><circle cx="1441" cy="964" r="0.5" fill="#D4AF37" opacity="0.34"/><circle cx="248" cy="693" r="1.3" fill="#D4AF37" opacity="0.52"/><circle cx="189" cy="779" r="1.6" fill="#D4AF37" opacity="0.38"/><circle cx="1339" cy="311" r="0.7" fill="#D4AF37" opacity="0.18"/><circle cx="106" cy="576" r="1.2" fill="#D4AF37" opacity="0.54"/><circle cx="1311" cy="53" r="2.2" fill="#D4AF37" opacity="0.23"/><circle cx="123" cy="1038" r="0.5" fill="#D4AF37" opacity="0.35"/><circle cx="1403" cy="224" r="0.7" fill="#D4AF37" opacity="0.44"/><circle cx="1552" cy="389" r="2.0" fill="#D4AF37" opacity="0.36"/><circle cx="1547" cy="351" r="2.2" fill="#D4AF37" opacity="0.57"/><circle cx="1091" cy="285" r="2.0" fill="#D4AF37" opacity="0.36"/><circle cx="973" cy="530" r="1.0" fill="#D4AF37" opacity="0.43"/><circle cx="692" cy="89" r="1.2" fill="#D4AF37" opacity="0.13"/><circle cx="1684" cy="1027" r="0.8" fill="#D4AF37" opacity="0.21"/><circle cx="1308" cy="747" r="1.6" fill="#D4AF37" opacity="0.38"/><circle cx="371" cy="297" r="0.7" fill="#D4AF37" opacity="0.26"/><circle cx="1209" cy="1023" r="0.5" fill="#D4AF37" opacity="0.32"/><circle cx="48" cy="1040" r="1.5" fill="#D4AF37" opacity="0.34"/><circle cx="711" cy="766" r="1.6" fill="#D4AF37" opacity="0.55"/><circle cx="1485" cy="832" r="2.2" fill="#D4AF37" opacity="0.45"/><circle cx="1104" cy="700" r="2.1" fill="#D4AF37" opacity="0.18"/><circle cx="303" cy="166" r="1.4" fill="#D4AF37" opacity="0.30"/><circle cx="1168" cy="364" r="1.7" fill="#D4AF37" opacity="0.60"/><circle cx="1080" cy="260" r="1.4" fill="#D4AF37" opacity="0.46"/><circle cx="1519" cy="774" r="2.4" fill="#D4AF37" opacity="0.12"/><circle cx="48" cy="521" r="1.5" fill="#D4AF37" opacity="0.51"/><circle cx="1729" cy="294" r="1.9" fill="#D4AF37" opacity="0.54"/><circle cx="1597" cy="68" r="2.2" fill="#D4AF37" opacity="0.38"/><circle cx="1649" cy="757" r="1.4" fill="#D4AF37" opacity="0.58"/><circle cx="13" cy="429" r="2.2" fill="#D4AF37" opacity="0.27"/><circle cx="1880" cy="306" r="0.9" fill="#D4AF37" opacity="0.27"/><circle cx="323" cy="1066" r="2.1" fill="#D4AF37" opacity="0.57"/><circle cx="1685" cy="358" r="1.4" fill="#D4AF37" opacity="0.38"/><circle cx="1261" cy="803" r="1.1" fill="#D4AF37" opacity="0.56"/><circle cx="1772" cy="939" r="0.7" fill="#D4AF37" opacity="0.45"/></g>
</svg>