<svg xmlns="http://www.w3.org/2000/svg" width="1600" height="1000" viewBox="0 0 1600 1000">
<defs>
<linearGradient id="bg" x1="0" y1="0" x2="1" y2="1">
<stop offset="0" stop-color="#0c1424"/><stop offset="1" stop-color="#0a0a0c"/>
</linearGradient>
<radialGradient id="glow" cx="0.7" cy="0.25" r="0.8">
<stop offset="0" stop-color="#D4AF37" stop-opacity="0.35"/>
<stop offset="0.5" stop-color="#D4AF37" stop-opacity="0.08"/>
<stop offset="1" stop-color="#D4AF37" stop-opacity="0"/>
</radialGradient>
<radialGradient id="glow2" cx="0.2" cy="0.85" r="0.7">
<stop offset="0" stop-color="#D4AF37" stop-opacity="0.18"/>
<stop offset="1" stop-color="#D4AF37" stop-opacity="0"/>
</radialGradient>
</defs>
<rect width="1600" height="1000" fill="url(#bg)"/>
<g><line x1="0" y1="0" x2="0" y2="1000" stroke="#ffffff" stroke-opacity="0.03"/><line x1="80" y1="0" x2="80" y2="1000" stroke="#ffffff" stroke-opacity="0.03"/><line x1="160" y1="0" x2="160" y2="1000" stroke="#ffffff" stroke-opacity="0.03"/><line x1="240" y1="0" x2="240" y2="1000" stroke="#ffffff" stroke-opacity="0.03"/><line x1="320" y1="0" x2="320" y2="1000" stroke="#ffffff" stroke-opacity="0.03"/><line x1="400" y1="0" x2="400" y2="1000" stroke="#ffffff" stroke-opacity="0.03"/><line x1="480" y1="0" x2="480" y2="1000" stroke="#ffffff" stroke-opacity="0.03"/><line x1="560" y1="0" x2="560" y2="1000" stroke="#ffffff" stroke-opacity="0.03"/><line x1="640" y1="0" x2="640" y2="1000" stroke="#ffffff" stroke-opacity="0.03"/><line x1="720" y1="0" x2="720" y2="1000" stroke="#ffffff" stroke-opacity="0.03"/><line x1="800" y1="0" x2="800" y2="1000" stroke="#ffffff" stroke-opacity="0.03"/><line x1="880" y1="0" x2="880" y2="1000" stroke="#ffffff" stroke-opacity="0.03"/><line x1="960" y1="0" x2="960" y2="1000" stroke="#ffffff" stroke-opacity="0.03"/><line x1="1040" y1="0" x2="1040" y2="1000" stroke="#ffffff" stroke-opacity="0.03"/><line x1="1120" y1="0" x2="1120" y2="1000" stroke="#ffffff" stroke-opacity="0.03"/><line x1="1200" y1="0" x2="1200" y2="1000" stroke="#ffffff" stroke-opacity="0.03"/><line x1="1280" y1="0" x2="1280" y2="1000" stroke="#ffffff" stroke-opacity="0.03"/><line x1="1360" y1="0" x2="1360" y2="1000" stroke="#ffffff" stroke-opacity="0.03"/><line x1="1440" y1="0" x2="1440" y2="1000" stroke="#ffffff" stroke-opacity="0.03"/><line x1="1520" y1="0" x2="1520" y2="1000" stroke="#ffffff" stroke-opacity="0.03"/><line x1="1600" y1="0" x2="1600" y2="1000" stroke="#ffffff" stroke-opacity="0.03"/><line x1="0" y1="0" x2="1600" y2="0" stroke="#ffffff" stroke-opacity="0.03"/><line x1="0" y1="80" x2="1600" y2="80" stroke="#ffffff" stroke-opacity="0.03"/><line x1="0" y1="160" x2="1600" y2="160" stroke="#ffffff" stroke-opacity="0.03"/><line x1="0" y1="240" x2="1600" y2="240" stroke="#ffffff" stroke-opacity="0.03"/><line x1="0" y1="320" x2="1600" y2="320" stroke="#ffffff" stroke-opacity="0.03"/><line x1="0" y1="400" x2="1600" y2="400" stroke="#ffffff" stroke-opacity="0.03"/><line x1="0" y1="480" x2="1600" y2="480" stroke="#ffffff" stroke-opacity="0.03"/><line x1="0" y1="560" x2="1600" y2="560" stroke="#ffffff" stroke-opacity="0.03"/><line x1="0" y1="640" x2="1600" y2="640" stroke="#ffffff" stroke-opacity="0.03"/><line x1="0" y1="720" x2="1600" y2="720" stroke="#ffffff" stroke-opacity="0.03"/><line x1="0" y1="800" x2="1600" y2="800" stroke="#ffffff" stroke-opacity="0.03"/><line x1="0" y1="880" x2="1600" y2="880" stroke="#ffffff" stroke-opacity="0.03"/><line x1="0" y1="960" x2="1600" y2="960" stroke="#ffffff" stroke-opacity="0.03"/></g>
<rect width="1600" height="1000" fill="url(#glow)"/>
<rect width="1600" height="1000" fill="url(#glow2)"/>
<g><circle cx="121" cy="922" r="1.5" fill="#D4AF37" opacity="0.60"/><circle cx="202" cy="594" r="1.6" fill="#D4AF37" opacity="0.31"/><circle cx="366" cy="364" r="2.1" fill="#D4AF37" opacity="0.53"/><circle cx="1314" cy="33" r="2.4" fill="#D4AF37" opacity="0.53"/><circle cx="1270" cy="4" r="1.7" fill="#D4AF37" opacity="0.49"/><circle cx="125" cy="154" r="1.3" fill="#D4AF37" opacity="0.16"/><circle cx="954" cy="961" r="0.6" fill="#D4AF37" opacity="0.55"/><circle cx="404" cy="279" r="0.4" fill="#D4AF37" opacity="0.36"/><circle cx="873" cy="813" r="2.3" fill="#D4AF37" opacity="0.46"/><circle cx="511" cy="274" r="2.3" fill="#D4AF37" opacity="0.60"/><circle cx="422" cy="255" r="1.9" fill="#D4AF37" opacity="0.11"/><circle cx="955" cy="379" r="0.6" fill="#D4AF37" opacity="0.32"/><circle cx="342" cy="560" r="1.3" fill="#D4AF37" opacity="0.36"/><circle cx="1565" cy="98" r="1.5" fill="#D4AF37" opacity="0.54"/><circle cx="1200" cy="12" r="0.8" fill="#D4AF37" opacity="0.47"/><circle cx="521" cy="607" r="2.2" fill="#D4AF37" opacity="0.54"/><circle cx="922" cy="359" r="1.4" fill="#D4AF37" opacity="0.57"/><circle cx="379" cy="980" r="1.3" fill="#D4AF37" opacity="0.22"/><circle cx="1312" cy="694" r="1.4" fill="#D4AF37" opacity="0.56"/><circle cx="843" cy="183" r="2.1" fill="#D4AF37" opacity="0.17"/><circle cx="126" cy="226" r="0.9" fill="#D4AF37" opacity="0.58"/><circle cx="247" cy="20" r="0.4" fill="#D4AF37" opacity="0.35"/><circle cx="781" cy="637" r="1.4" fill="#D4AF37" opacity="0.13"/><circle cx="495" cy="545" r="1.8" fill="#D4AF37" opacity="0.42"/><circle cx="1261" cy="559" r="1.6" fill="#D4AF37" opacity="0.22"/><circle cx="325" cy="125" r="1.0" fill="#D4AF37" opacity="0.20"/><circle cx="413" cy="54" r="2.0" fill="#D4AF37" opacity="0.26"/><circle cx="727" cy="264" r="0.7" fill="#D4AF37" opacity="0.34"/><circle cx="364" cy="55" r="0.7" fill="#D4AF37" opacity="0.21"/><circle cx="273" cy="181" r="0.8" fill="#D4AF37" opacity="0.19"/><circle cx="1554" cy="357" r="2.0" fill="#D4AF37" opacity="0.21"/><circle cx="1310" cy="869" r="1.0" fill="#D4AF37" opacity="0.34"/><circle cx="9" cy="243" r="1.1" fill="#D4AF37" opacity="0.12"/><circle cx="721" cy="802" r="2.3" fill="#D4AF37" opacity="0.47"/><circle cx="1283" cy="299" r="2.1" fill="#D4AF37" opacity="0.15"/><circle cx="87" cy="575" r="0.8" fill="#D4AF37" opacity="0.54"/><circle cx="215" cy="874" r="1.4" fill="#D4AF37" opacity="0.22"/><circle cx="1253" cy="548" r="2.1" fill="#D4AF37" opacity="0.43"/><circle cx="868" cy="954" r="2.1" fill="#D4AF37" opacity="0.48"/><circle cx="1338" cy="256" r="1.0" fill="#D4AF37" opacity="0.38"/></g>
</svg>