<svg xmlns="http://www.w3.org/2000/svg" width="1600" height="1000" viewBox="0 0 1600 1000">
<defs>
<linearGradient id="bg" x1="0" y1="0" x2="1" y2="1">
<stop offset="0" stop-color="#160f24"/><stop offset="1" stop-color="#0a0a0c"/>
</linearGradient>
<radialGradient id="glow" cx="0.7" cy="0.25" r="0.8">
<stop offset="0" stop-color="#9a7bd0" stop-opacity="0.35"/>
<stop offset="0.5" stop-color="#9a7bd0" stop-opacity="0.08"/>
<stop offset="1" stop-color="#9a7bd0" stop-opacity="0"/>
</radialGradient>
<radialGradient id="glow2" cx="0.2" cy="0.85" r="0.7">
<stop offset="0" stop-color="#9a7bd0" stop-opacity="0.18"/>
<stop offset="1" stop-color="#9a7bd0" stop-opacity="0"/>
</radialGradient>
</defs>
<rect width="1600" height="1000" fill="url(#bg)"/>
<g><line x1="0" y1="0" x2="0" y2="1000" stroke="#ffffff" stroke-opacity="0.03"/><line x1="80" y1="0" x2="80" y2="1000" stroke="#ffffff" stroke-opacity="0.03"/><line x1="160" y1="0" x2="160" y2="1000" stroke="#ffffff" stroke-opacity="0.03"/><line x1="240" y1="0" x2="240" y2="1000" stroke="#ffffff" stroke-opacity="0.03"/><line x1="320" y1="0" x2="320" y2="1000" stroke="#ffffff" stroke-opacity="0.03"/><line x1="400" y1="0" x2="400" y2="1000" stroke="#ffffff" stroke-opacity="0.03"/><line x1="480" y1="0" x2="480" y2="1000" stroke="#ffffff" stroke-opacity="0.03"/><line x1="560" y1="0" x2="560" y2="1000" stroke="#ffffff" stroke-opacity="0.03"/><line x1="640" y1="0" x2="640" y2="1000" stroke="#ffffff" stroke-opacity="0.03"/><line x1="720" y1="0" x2="720" y2="1000" stroke="#ffffff" stroke-opacity="0.03"/><line x1="800" y1="0" x2="800" y2="1000" stroke="#ffffff" stroke-opacity="0.03"/><line x1="880" y1="0" x2="880" y2="1000" stroke="#ffffff" stroke-opacity="0.03"/><line x1="960" y1="0" x2="960" y2="1000" stroke="#ffffff" stroke-opacity="0.03"/><line x1="1040" y1="0" x2="1040" y2="1000" stroke="#ffffff" stroke-opacity="0.03"/><line x1="1120" y1="0" x2="1120" y2="1000" stroke="#ffffff" stroke-opacity="0.03"/><line x1="1200" y1="0" x2="1200" y2="1000" stroke="#ffffff" stroke-opacity="0.03"/><line x1="1280" y1="0" x2="1280" y2="1000" stroke="#ffffff" stroke-opacity="0.03"/><line x1="1360" y1="0" x2="1360" y2="1000" stroke="#ffffff" stroke-opacity="0.03"/><line x1="1440" y1="0" x2="1440" y2="1000" stroke="#ffffff" stroke-opacity="0.03"/><line x1="1520" y1="0" x2="1520" y2="1000" stroke="#ffffff" stroke-opacity="0.03"/><line x1="1600" y1="0" x2="1600" y2="1000" stroke="#ffffff" stroke-opacity="0.03"/><line x1="0" y1="0" x2="1600" y2="0" stroke="#ffffff" stroke-opacity="0.03"/><line x1="0" y1="80" x2="1600" y2="80" stroke="#ffffff" stroke-opacity="0.03"/><line x1="0" y1="160" x2="1600" y2="160" stroke="#ffffff" stroke-opacity="0.03"/><line x1="0" y1="240" x2="1600" y2="240" stroke="#ffffff" stroke-opacity="0.03"/><line x1="0" y1="320" x2="1600" y2="320" stroke="#ffffff" stroke-opacity="0.03"/><line x1="0" y1="400" x2="1600" y2="400" stroke="#ffffff" stroke-opacity="0.03"/><line x1="0" y1="480" x2="1600" y2="480" stroke="#ffffff" stroke-opacity="0.03"/><line x1="0" y1="560" x2="1600" y2="560" stroke="#ffffff" stroke-opacity="0.03"/><line x1="0" y1="640" x2="1600" y2="640" stroke="#ffffff" stroke-opacity="0.03"/><line x1="0" y1="720" x2="1600" y2="720" stroke="#ffffff" stroke-opacity="0.03"/><line x1="0" y1="800" x2="1600" y2="800" stroke="#ffffff" stroke-opacity="0.03"/><line x1="0" y1="880" x2="1600" y2="880" stroke="#ffffff" stroke-opacity="0.03"/><line x1="0" y1="960" x2="1600" y2="960" stroke="#ffffff" stroke-opacity="0.03"/></g>
<rect width="1600" height="1000" fill="url(#glow)"/>
<rect width="1600" height="1000" fill="url(#glow2)"/>
<g><circle cx="855" cy="906" r="1.4" fill="#9a7bd0" opacity="0.46"/><circle cx="1106" cy="672" r="1.3" fill="#9a7bd0" opacity="0.28"/><circle cx="257" cy="443" r="0.5" fill="#9a7bd0" opacity="0.44"/><circle cx="280" cy="201" r="0.7" fill="#9a7bd0" opacity="0.26"/><circle cx="242" cy="842" r="1.3" fill="#9a7bd0" opacity="0.18"/><circle cx="220" cy="545" r="0.8" fill="#9a7bd0" opacity="0.58"/><circle cx="1311" cy="641" r="1.9" fill="#9a7bd0" opacity="0.21"/><circle cx="966" cy="348" r="1.5" fill="#9a7bd0" opacity="0.44"/><circle cx="365" cy="995" r="1.2" fill="#9a7bd0" opacity="0.52"/><circle cx="1069" cy="800" r="1.6" fill="#9a7bd0" opacity="0.25"/><circle cx="188" cy="44" r="2.0" fill="#9a7bd0" opacity="0.21"/><circle cx="1589" cy="931" r="1.5" fill="#9a7bd0" opacity="0.41"/><circle cx="1319" cy="315" r="1.7" fill="#9a7bd0" opacity="0.44"/><circle cx="812" cy="509" r="0.9" fill="#9a7bd0" opacity="0.38"/><circle cx="497" cy="100" r="1.0" fill="#9a7bd0" opacity="0.43"/><circle cx="1152" cy="975" r="0.9" fill="#9a7bd0" opacity="0.37"/><circle cx="1214" cy="343" r="2.1" fill="#9a7bd0" opacity="0.32"/><circle cx="1048" cy="14" r="0.6" fill="#9a7bd0" opacity="0.37"/><circle cx="209" cy="237" r="0.8" fill="#9a7bd0" opacity="0.51"/><circle cx="347" cy="272" r="1.7" fill="#9a7bd0" opacity="0.29"/><circle cx="644" cy="91" r="1.1" fill="#9a7bd0" opacity="0.56"/><circle cx="1273" cy="775" r="0.5" fill="#9a7bd0" opacity="0.25"/><circle cx="916" cy="556" r="1.8" fill="#9a7bd0" opacity="0.35"/><circle cx="372" cy="70" r="2.3" fill="#9a7bd0" opacity="0.50"/><circle cx="515" cy="60" r="0.8" fill="#9a7bd0" opacity="0.40"/><circle cx="102" cy="501" r="1.7" fill="#9a7bd0" opacity="0.35"/><circle cx="1586" cy="267" r="2.0" fill="#9a7bd0" opacity="0.45"/><circle cx="769" cy="198" r="2.0" fill="#9a7bd0" opacity="0.52"/><circle cx="1172" cy="660" r="0.7" fill="#9a7bd0" opacity="0.44"/><circle cx="1522" cy="14" r="0.5" fill="#9a7bd0" opacity="0.19"/><circle cx="17" cy="518" r="1.8" fill="#9a7bd0" opacity="0.29"/><circle cx="125" cy="819" r="1.0" fill="#9a7bd0" opacity="0.51"/><circle cx="1023" cy="177" r="0.6" fill="#9a7bd0" opacity="0.41"/><circle cx="983" cy="274" r="2.0" fill="#9a7bd0" opacity="0.14"/><circle cx="1416" cy="102" r="1.3" fill="#9a7bd0" opacity="0.15"/><circle cx="462" cy="423" r="0.6" fill="#9a7bd0" opacity="0.15"/><circle cx="1211" cy="587" r="2.2" fill="#9a7bd0" opacity="0.28"/><circle cx="1549" cy="495" r="2.3" fill="#9a7bd0" opacity="0.32"/><circle cx="1168" cy="398" r="1.1" fill="#9a7bd0" opacity="0.59"/><circle cx="480" cy="380" r="0.9" fill="#9a7bd0" opacity="0.50"/></g>
</svg>