<svg xmlns="http://www.w3.org/2000/svg" width="1600" height="1000" viewBox="0 0 1600 1000">
<defs>
<linearGradient id="bg" x1="0" y1="0" x2="1" y2="1">
<stop offset="0" stop-color="#231405"/><stop offset="1" stop-color="#0a0a0c"/>
</linearGradient>
<radialGradient id="glow" cx="0.7" cy="0.25" r="0.8">
<stop offset="0" stop-color="#D4AF37" stop-opacity="0.35"/>
<stop offset="0.5" stop-color="#D4AF37" stop-opacity="0.08"/>
<stop offset="1" stop-color="#D4AF37" stop-opacity="0"/>
</radialGradient>
<radialGradient id="glow2" cx="0.2" cy="0.85" r="0.7">
<stop offset="0" stop-color="#D4AF37" stop-opacity="0.18"/>
<stop offset="1" stop-color="#D4AF37" stop-opacity="0"/>
</radialGradient>
</defs>
<rect width="1600" height="1000" fill="url(#bg)"/>
<g><line x1="0" y1="0" x2="0" y2="1000" stroke="#ffffff" stroke-opacity="0.03"/><line x1="80" y1="0" x2="80" y2="1000" stroke="#ffffff" stroke-opacity="0.03"/><line x1="160" y1="0" x2="160" y2="1000" stroke="#ffffff" stroke-opacity="0.03"/><line x1="240" y1="0" x2="240" y2="1000" stroke="#ffffff" stroke-opacity="0.03"/><line x1="320" y1="0" x2="320" y2="1000" stroke="#ffffff" stroke-opacity="0.03"/><line x1="400" y1="0" x2="400" y2="1000" stroke="#ffffff" stroke-opacity="0.03"/><line x1="480" y1="0" x2="480" y2="1000" stroke="#ffffff" stroke-opacity="0.03"/><line x1="560" y1="0" x2="560" y2="1000" stroke="#ffffff" stroke-opacity="0.03"/><line x1="640" y1="0" x2="640" y2="1000" stroke="#ffffff" stroke-opacity="0.03"/><line x1="720" y1="0" x2="720" y2="1000" stroke="#ffffff" stroke-opacity="0.03"/><line x1="800" y1="0" x2="800" y2="1000" stroke="#ffffff" stroke-opacity="0.03"/><line x1="880" y1="0" x2="880" y2="1000" stroke="#ffffff" stroke-opacity="0.03"/><line x1="960" y1="0" x2="960" y2="1000" stroke="#ffffff" stroke-opacity="0.03"/><line x1="1040" y1="0" x2="1040" y2="1000" stroke="#ffffff" stroke-opacity="0.03"/><line x1="1120" y1="0" x2="1120" y2="1000" stroke="#ffffff" stroke-opacity="0.03"/><line x1="1200" y1="0" x2="1200" y2="1000" stroke="#ffffff" stroke-opacity="0.03"/><line x1="1280" y1="0" x2="1280" y2="1000" stroke="#ffffff" stroke-opacity="0.03"/><line x1="1360" y1="0" x2="1360" y2="1000" stroke="#ffffff" stroke-opacity="0.03"/><line x1="1440" y1="0" x2="1440" y2="1000" stroke="#ffffff" stroke-opacity="0.03"/><line x1="1520" y1="0" x2="1520" y2="1000" stroke="#ffffff" stroke-opacity="0.03"/><line x1="1600" y1="0" x2="1600" y2="1000" stroke="#ffffff" stroke-opacity="0.03"/><line x1="0" y1="0" x2="1600" y2="0" stroke="#ffffff" stroke-opacity="0.03"/><line x1="0" y1="80" x2="1600" y2="80" stroke="#ffffff" stroke-opacity="0.03"/><line x1="0" y1="160" x2="1600" y2="160" stroke="#ffffff" stroke-opacity="0.03"/><line x1="0" y1="240" x2="1600" y2="240" stroke="#ffffff" stroke-opacity="0.03"/><line x1="0" y1="320" x2="1600" y2="320" stroke="#ffffff" stroke-opacity="0.03"/><line x1="0" y1="400" x2="1600" y2="400" stroke="#ffffff" stroke-opacity="0.03"/><line x1="0" y1="480" x2="1600" y2="480" stroke="#ffffff" stroke-opacity="0.03"/><line x1="0" y1="560" x2="1600" y2="560" stroke="#ffffff" stroke-opacity="0.03"/><line x1="0" y1="640" x2="1600" y2="640" stroke="#ffffff" stroke-opacity="0.03"/><line x1="0" y1="720" x2="1600" y2="720" stroke="#ffffff" stroke-opacity="0.03"/><line x1="0" y1="800" x2="1600" y2="800" stroke="#ffffff" stroke-opacity="0.03"/><line x1="0" y1="880" x2="1600" y2="880" stroke="#ffffff" stroke-opacity="0.03"/><line x1="0" y1="960" x2="1600" y2="960" stroke="#ffffff" stroke-opacity="0.03"/></g>
<rect width="1600" height="1000" fill="url(#glow)"/>
<rect width="1600" height="1000" fill="url(#glow2)"/>
<g><circle cx="976" cy="172" r="1.8" fill="#D4AF37" opacity="0.57"/><circle cx="1172" cy="631" r="2.3" fill="#D4AF37" opacity="0.59"/><circle cx="151" cy="534" r="0.7" fill="#D4AF37" opacity="0.45"/><circle cx="413" cy="863" r="1.4" fill="#D4AF37" opacity="0.17"/><circle cx="217" cy="160" r="1.3" fill="#D4AF37" opacity="0.37"/><circle cx="1138" cy="99" r="0.8" fill="#D4AF37" opacity="0.17"/><circle cx="1076" cy="764" r="0.7" fill="#D4AF37" opacity="0.31"/><circle cx="261" cy="198" r="0.7" fill="#D4AF37" opacity="0.33"/><circle cx="1593" cy="201" r="0.8" fill="#D4AF37" opacity="0.14"/><circle cx="767" cy="400" r="1.1" fill="#D4AF37" opacity="0.43"/><circle cx="1198" cy="51" r="0.4" fill="#D4AF37" opacity="0.14"/><circle cx="915" cy="42" r="1.1" fill="#D4AF37" opacity="0.20"/><circle cx="1542" cy="665" r="2.2" fill="#D4AF37" opacity="0.30"/><circle cx="1437" cy="962" r="0.9" fill="#D4AF37" opacity="0.59"/><circle cx="408" cy="830" r="1.0" fill="#D4AF37" opacity="0.58"/><circle cx="437" cy="233" r="1.4" fill="#D4AF37" opacity="0.58"/><circle cx="1346" cy="734" r="1.4" fill="#D4AF37" opacity="0.29"/><circle cx="1367" cy="282" r="0.6" fill="#D4AF37" opacity="0.13"/><circle cx="225" cy="939" r="0.8" fill="#D4AF37" opacity="0.11"/><circle cx="1401" cy="91" r="0.5" fill="#D4AF37" opacity="0.50"/><circle cx="514" cy="91" r="1.9" fill="#D4AF37" opacity="0.19"/><circle cx="876" cy="529" r="1.7" fill="#D4AF37" opacity="0.19"/><circle cx="384" cy="731" r="1.0" fill="#D4AF37" opacity="0.26"/><circle cx="399" cy="852" r="0.9" fill="#D4AF37" opacity="0.57"/><circle cx="662" cy="916" r="1.4" fill="#D4AF37" opacity="0.12"/><circle cx="512" cy="611" r="1.1" fill="#D4AF37" opacity="0.17"/><circle cx="1303" cy="692" r="1.2" fill="#D4AF37" opacity="0.36"/><circle cx="886" cy="494" r="1.4" fill="#D4AF37" opacity="0.40"/><circle cx="1120" cy="812" r="0.6" fill="#D4AF37" opacity="0.40"/><circle cx="346" cy="370" r="1.6" fill="#D4AF37" opacity="0.14"/><circle cx="600" cy="393" r="1.2" fill="#D4AF37" opacity="0.46"/><circle cx="580" cy="13" r="1.9" fill="#D4AF37" opacity="0.35"/><circle cx="1554" cy="994" r="1.8" fill="#D4AF37" opacity="0.48"/><circle cx="114" cy="540" r="1.3" fill="#D4AF37" opacity="0.44"/><circle cx="516" cy="572" r="2.0" fill="#D4AF37" opacity="0.38"/><circle cx="473" cy="263" r="1.4" fill="#D4AF37" opacity="0.35"/><circle cx="1221" cy="358" r="1.7" fill="#D4AF37" opacity="0.44"/><circle cx="1495" cy="833" r="2.3" fill="#D4AF37" opacity="0.28"/><circle cx="1565" cy="407" r="1.2" fill="#D4AF37" opacity="0.57"/><circle cx="612" cy="466" r="1.3" fill="#D4AF37" opacity="0.26"/></g>
</svg>