<svg xmlns="http://www.w3.org/2000/svg" width="1600" height="1000" viewBox="0 0 1600 1000">
<defs>
<linearGradient id="bg" x1="0" y1="0" x2="1" y2="1">
<stop offset="0" stop-color="#0d2018"/><stop offset="1" stop-color="#0a0a0c"/>
</linearGradient>
<radialGradient id="glow" cx="0.7" cy="0.25" r="0.8">
<stop offset="0" stop-color="#46b88a" stop-opacity="0.35"/>
<stop offset="0.5" stop-color="#46b88a" stop-opacity="0.08"/>
<stop offset="1" stop-color="#46b88a" stop-opacity="0"/>
</radialGradient>
<radialGradient id="glow2" cx="0.2" cy="0.85" r="0.7">
<stop offset="0" stop-color="#46b88a" stop-opacity="0.18"/>
<stop offset="1" stop-color="#46b88a" stop-opacity="0"/>
</radialGradient>
</defs>
<rect width="1600" height="1000" fill="url(#bg)"/>
<g><line x1="0" y1="0" x2="0" y2="1000" stroke="#ffffff" stroke-opacity="0.03"/><line x1="80" y1="0" x2="80" y2="1000" stroke="#ffffff" stroke-opacity="0.03"/><line x1="160" y1="0" x2="160" y2="1000" stroke="#ffffff" stroke-opacity="0.03"/><line x1="240" y1="0" x2="240" y2="1000" stroke="#ffffff" stroke-opacity="0.03"/><line x1="320" y1="0" x2="320" y2="1000" stroke="#ffffff" stroke-opacity="0.03"/><line x1="400" y1="0" x2="400" y2="1000" stroke="#ffffff" stroke-opacity="0.03"/><line x1="480" y1="0" x2="480" y2="1000" stroke="#ffffff" stroke-opacity="0.03"/><line x1="560" y1="0" x2="560" y2="1000" stroke="#ffffff" stroke-opacity="0.03"/><line x1="640" y1="0" x2="640" y2="1000" stroke="#ffffff" stroke-opacity="0.03"/><line x1="720" y1="0" x2="720" y2="1000" stroke="#ffffff" stroke-opacity="0.03"/><line x1="800" y1="0" x2="800" y2="1000" stroke="#ffffff" stroke-opacity="0.03"/><line x1="880" y1="0" x2="880" y2="1000" stroke="#ffffff" stroke-opacity="0.03"/><line x1="960" y1="0" x2="960" y2="1000" stroke="#ffffff" stroke-opacity="0.03"/><line x1="1040" y1="0" x2="1040" y2="1000" stroke="#ffffff" stroke-opacity="0.03"/><line x1="1120" y1="0" x2="1120" y2="1000" stroke="#ffffff" stroke-opacity="0.03"/><line x1="1200" y1="0" x2="1200" y2="1000" stroke="#ffffff" stroke-opacity="0.03"/><line x1="1280" y1="0" x2="1280" y2="1000" stroke="#ffffff" stroke-opacity="0.03"/><line x1="1360" y1="0" x2="1360" y2="1000" stroke="#ffffff" stroke-opacity="0.03"/><line x1="1440" y1="0" x2="1440" y2="1000" stroke="#ffffff" stroke-opacity="0.03"/><line x1="1520" y1="0" x2="1520" y2="1000" stroke="#ffffff" stroke-opacity="0.03"/><line x1="1600" y1="0" x2="1600" y2="1000" stroke="#ffffff" stroke-opacity="0.03"/><line x1="0" y1="0" x2="1600" y2="0" stroke="#ffffff" stroke-opacity="0.03"/><line x1="0" y1="80" x2="1600" y2="80" stroke="#ffffff" stroke-opacity="0.03"/><line x1="0" y1="160" x2="1600" y2="160" stroke="#ffffff" stroke-opacity="0.03"/><line x1="0" y1="240" x2="1600" y2="240" stroke="#ffffff" stroke-opacity="0.03"/><line x1="0" y1="320" x2="1600" y2="320" stroke="#ffffff" stroke-opacity="0.03"/><line x1="0" y1="400" x2="1600" y2="400" stroke="#ffffff" stroke-opacity="0.03"/><line x1="0" y1="480" x2="1600" y2="480" stroke="#ffffff" stroke-opacity="0.03"/><line x1="0" y1="560" x2="1600" y2="560" stroke="#ffffff" stroke-opacity="0.03"/><line x1="0" y1="640" x2="1600" y2="640" stroke="#ffffff" stroke-opacity="0.03"/><line x1="0" y1="720" x2="1600" y2="720" stroke="#ffffff" stroke-opacity="0.03"/><line x1="0" y1="800" x2="1600" y2="800" stroke="#ffffff" stroke-opacity="0.03"/><line x1="0" y1="880" x2="1600" y2="880" stroke="#ffffff" stroke-opacity="0.03"/><line x1="0" y1="960" x2="1600" y2="960" stroke="#ffffff" stroke-opacity="0.03"/></g>
<rect width="1600" height="1000" fill="url(#glow)"/>
<rect width="1600" height="1000" fill="url(#glow2)"/>
<g><circle cx="734" cy="639" r="1.3" fill="#46b88a" opacity="0.35"/><circle cx="359" cy="106" r="0.4" fill="#46b88a" opacity="0.36"/><circle cx="536" cy="107" r="1.9" fill="#46b88a" opacity="0.38"/><circle cx="915" cy="270" r="1.4" fill="#46b88a" opacity="0.19"/><circle cx="1584" cy="14" r="2.2" fill="#46b88a" opacity="0.52"/><circle cx="440" cy="131" r="0.8" fill="#46b88a" opacity="0.42"/><circle cx="1476" cy="350" r="1.3" fill="#46b88a" opacity="0.46"/><circle cx="1249" cy="469" r="2.0" fill="#46b88a" opacity="0.37"/><circle cx="863" cy="407" r="2.2" fill="#46b88a" opacity="0.19"/><circle cx="98" cy="542" r="0.5" fill="#46b88a" opacity="0.13"/><circle cx="57" cy="337" r="2.0" fill="#46b88a" opacity="0.27"/><circle cx="985" cy="475" r="1.4" fill="#46b88a" opacity="0.20"/><circle cx="189" cy="911" r="2.1" fill="#46b88a" opacity="0.46"/><circle cx="443" cy="211" r="2.1" fill="#46b88a" opacity="0.40"/><circle cx="868" cy="282" r="1.7" fill="#46b88a" opacity="0.57"/><circle cx="1216" cy="17" r="1.7" fill="#46b88a" opacity="0.26"/><circle cx="14" cy="969" r="1.2" fill="#46b88a" opacity="0.32"/><circle cx="1111" cy="714" r="1.8" fill="#46b88a" opacity="0.51"/><circle cx="10" cy="177" r="1.5" fill="#46b88a" opacity="0.14"/><circle cx="1421" cy="560" r="0.8" fill="#46b88a" opacity="0.47"/><circle cx="748" cy="366" r="0.7" fill="#46b88a" opacity="0.24"/><circle cx="1282" cy="831" r="1.6" fill="#46b88a" opacity="0.18"/><circle cx="754" cy="433" r="1.9" fill="#46b88a" opacity="0.40"/><circle cx="1009" cy="931" r="1.2" fill="#46b88a" opacity="0.53"/><circle cx="1486" cy="334" r="0.9" fill="#46b88a" opacity="0.11"/><circle cx="1465" cy="248" r="1.8" fill="#46b88a" opacity="0.56"/><circle cx="859" cy="543" r="1.5" fill="#46b88a" opacity="0.49"/><circle cx="1025" cy="84" r="2.4" fill="#46b88a" opacity="0.42"/><circle cx="1495" cy="656" r="1.2" fill="#46b88a" opacity="0.29"/><circle cx="1358" cy="342" r="0.6" fill="#46b88a" opacity="0.24"/><circle cx="305" cy="106" r="1.7" fill="#46b88a" opacity="0.56"/><circle cx="5" cy="135" r="0.8" fill="#46b88a" opacity="0.48"/><circle cx="182" cy="28" r="0.8" fill="#46b88a" opacity="0.13"/><circle cx="262" cy="276" r="1.5" fill="#46b88a" opacity="0.21"/><circle cx="15" cy="858" r="0.6" fill="#46b88a" opacity="0.48"/><circle cx="950" cy="329" r="0.4" fill="#46b88a" opacity="0.17"/><circle cx="1500" cy="363" r="1.9" fill="#46b88a" opacity="0.36"/><circle cx="330" cy="677" r="1.7" fill="#46b88a" opacity="0.18"/><circle cx="766" cy="371" r="0.7" fill="#46b88a" opacity="0.16"/><circle cx="193" cy="837" r="1.4" fill="#46b88a" opacity="0.57"/></g>
</svg>