<svg xmlns="http://www.w3.org/2000/svg" width="1600" height="1000" viewBox="0 0 1600 1000">
<defs>
<linearGradient id="bg" x1="0" y1="0" x2="1" y2="1">
<stop offset="0" stop-color="#04140a"/><stop offset="1" stop-color="#0a0a0c"/>
</linearGradient>
<radialGradient id="glow" cx="0.7" cy="0.25" r="0.8">
<stop offset="0" stop-color="#6fce6f" stop-opacity="0.35"/>
<stop offset="0.5" stop-color="#6fce6f" stop-opacity="0.08"/>
<stop offset="1" stop-color="#6fce6f" stop-opacity="0"/>
</radialGradient>
<radialGradient id="glow2" cx="0.2" cy="0.85" r="0.7">
<stop offset="0" stop-color="#6fce6f" stop-opacity="0.18"/>
<stop offset="1" stop-color="#6fce6f" stop-opacity="0"/>
</radialGradient>
</defs>
<rect width="1600" height="1000" fill="url(#bg)"/>
<g><line x1="0" y1="0" x2="0" y2="1000" stroke="#ffffff" stroke-opacity="0.03"/><line x1="80" y1="0" x2="80" y2="1000" stroke="#ffffff" stroke-opacity="0.03"/><line x1="160" y1="0" x2="160" y2="1000" stroke="#ffffff" stroke-opacity="0.03"/><line x1="240" y1="0" x2="240" y2="1000" stroke="#ffffff" stroke-opacity="0.03"/><line x1="320" y1="0" x2="320" y2="1000" stroke="#ffffff" stroke-opacity="0.03"/><line x1="400" y1="0" x2="400" y2="1000" stroke="#ffffff" stroke-opacity="0.03"/><line x1="480" y1="0" x2="480" y2="1000" stroke="#ffffff" stroke-opacity="0.03"/><line x1="560" y1="0" x2="560" y2="1000" stroke="#ffffff" stroke-opacity="0.03"/><line x1="640" y1="0" x2="640" y2="1000" stroke="#ffffff" stroke-opacity="0.03"/><line x1="720" y1="0" x2="720" y2="1000" stroke="#ffffff" stroke-opacity="0.03"/><line x1="800" y1="0" x2="800" y2="1000" stroke="#ffffff" stroke-opacity="0.03"/><line x1="880" y1="0" x2="880" y2="1000" stroke="#ffffff" stroke-opacity="0.03"/><line x1="960" y1="0" x2="960" y2="1000" stroke="#ffffff" stroke-opacity="0.03"/><line x1="1040" y1="0" x2="1040" y2="1000" stroke="#ffffff" stroke-opacity="0.03"/><line x1="1120" y1="0" x2="1120" y2="1000" stroke="#ffffff" stroke-opacity="0.03"/><line x1="1200" y1="0" x2="1200" y2="1000" stroke="#ffffff" stroke-opacity="0.03"/><line x1="1280" y1="0" x2="1280" y2="1000" stroke="#ffffff" stroke-opacity="0.03"/><line x1="1360" y1="0" x2="1360" y2="1000" stroke="#ffffff" stroke-opacity="0.03"/><line x1="1440" y1="0" x2="1440" y2="1000" stroke="#ffffff" stroke-opacity="0.03"/><line x1="1520" y1="0" x2="1520" y2="1000" stroke="#ffffff" stroke-opacity="0.03"/><line x1="1600" y1="0" x2="1600" y2="1000" stroke="#ffffff" stroke-opacity="0.03"/><line x1="0" y1="0" x2="1600" y2="0" stroke="#ffffff" stroke-opacity="0.03"/><line x1="0" y1="80" x2="1600" y2="80" stroke="#ffffff" stroke-opacity="0.03"/><line x1="0" y1="160" x2="1600" y2="160" stroke="#ffffff" stroke-opacity="0.03"/><line x1="0" y1="240" x2="1600" y2="240" stroke="#ffffff" stroke-opacity="0.03"/><line x1="0" y1="320" x2="1600" y2="320" stroke="#ffffff" stroke-opacity="0.03"/><line x1="0" y1="400" x2="1600" y2="400" stroke="#ffffff" stroke-opacity="0.03"/><line x1="0" y1="480" x2="1600" y2="480" stroke="#ffffff" stroke-opacity="0.03"/><line x1="0" y1="560" x2="1600" y2="560" stroke="#ffffff" stroke-opacity="0.03"/><line x1="0" y1="640" x2="1600" y2="640" stroke="#ffffff" stroke-opacity="0.03"/><line x1="0" y1="720" x2="1600" y2="720" stroke="#ffffff" stroke-opacity="0.03"/><line x1="0" y1="800" x2="1600" y2="800" stroke="#ffffff" stroke-opacity="0.03"/><line x1="0" y1="880" x2="1600" y2="880" stroke="#ffffff" stroke-opacity="0.03"/><line x1="0" y1="960" x2="1600" y2="960" stroke="#ffffff" stroke-opacity="0.03"/></g>
<rect width="1600" height="1000" fill="url(#glow)"/>
<rect width="1600" height="1000" fill="url(#glow2)"/>
<g><circle cx="1098" cy="439" r="2.3" fill="#6fce6f" opacity="0.30"/><circle cx="1461" cy="735" r="2.2" fill="#6fce6f" opacity="0.59"/><circle cx="1275" cy="179" r="0.8" fill="#6fce6f" opacity="0.15"/><circle cx="792" cy="525" r="1.6" fill="#6fce6f" opacity="0.44"/><circle cx="24" cy="662" r="1.0" fill="#6fce6f" opacity="0.22"/><circle cx="543" cy="639" r="0.5" fill="#6fce6f" opacity="0.32"/><circle cx="857" cy="367" r="1.5" fill="#6fce6f" opacity="0.20"/><circle cx="1338" cy="746" r="1.3" fill="#6fce6f" opacity="0.24"/><circle cx="1190" cy="435" r="0.5" fill="#6fce6f" opacity="0.31"/><circle cx="849" cy="330" r="0.5" fill="#6fce6f" opacity="0.16"/><circle cx="1456" cy="178" r="1.7" fill="#6fce6f" opacity="0.37"/><circle cx="1374" cy="440" r="1.2" fill="#6fce6f" opacity="0.43"/><circle cx="1345" cy="536" r="2.0" fill="#6fce6f" opacity="0.46"/><circle cx="466" cy="591" r="1.9" fill="#6fce6f" opacity="0.40"/><circle cx="893" cy="92" r="2.2" fill="#6fce6f" opacity="0.27"/><circle cx="529" cy="84" r="1.4" fill="#6fce6f" opacity="0.37"/><circle cx="1062" cy="261" r="1.6" fill="#6fce6f" opacity="0.54"/><circle cx="1371" cy="899" r="1.5" fill="#6fce6f" opacity="0.32"/><circle cx="315" cy="144" r="1.9" fill="#6fce6f" opacity="0.46"/><circle cx="283" cy="672" r="1.2" fill="#6fce6f" opacity="0.26"/><circle cx="1387" cy="36" r="0.6" fill="#6fce6f" opacity="0.44"/><circle cx="1426" cy="86" r="1.4" fill="#6fce6f" opacity="0.58"/><circle cx="1177" cy="410" r="2.3" fill="#6fce6f" opacity="0.11"/><circle cx="141" cy="143" r="0.9" fill="#6fce6f" opacity="0.53"/><circle cx="1377" cy="329" r="1.5" fill="#6fce6f" opacity="0.21"/><circle cx="424" cy="376" r="2.3" fill="#6fce6f" opacity="0.11"/><circle cx="1542" cy="129" r="1.9" fill="#6fce6f" opacity="0.29"/><circle cx="391" cy="333" r="1.9" fill="#6fce6f" opacity="0.51"/><circle cx="686" cy="628" r="2.1" fill="#6fce6f" opacity="0.13"/><circle cx="437" cy="160" r="0.6" fill="#6fce6f" opacity="0.32"/><circle cx="872" cy="493" r="1.4" fill="#6fce6f" opacity="0.40"/><circle cx="735" cy="366" r="1.2" fill="#6fce6f" opacity="0.25"/><circle cx="787" cy="354" r="1.0" fill="#6fce6f" opacity="0.21"/><circle cx="1188" cy="790" r="1.8" fill="#6fce6f" opacity="0.42"/><circle cx="1210" cy="152" r="1.9" fill="#6fce6f" opacity="0.20"/><circle cx="1556" cy="42" r="1.8" fill="#6fce6f" opacity="0.17"/><circle cx="1343" cy="118" r="1.7" fill="#6fce6f" opacity="0.11"/><circle cx="346" cy="215" r="0.5" fill="#6fce6f" opacity="0.11"/><circle cx="1451" cy="477" r="2.0" fill="#6fce6f" opacity="0.51"/><circle cx="488" cy="848" r="1.2" fill="#6fce6f" opacity="0.28"/></g>
</svg>