<svg xmlns="http://www.w3.org/2000/svg" width="1600" height="1000" viewBox="0 0 1600 1000">
<defs>
<linearGradient id="bg" x1="0" y1="0" x2="1" y2="1">
<stop offset="0" stop-color="#101a2b"/><stop offset="1" stop-color="#0a0a0c"/>
</linearGradient>
<radialGradient id="glow" cx="0.7" cy="0.25" r="0.8">
<stop offset="0" stop-color="#5ea0d0" stop-opacity="0.35"/>
<stop offset="0.5" stop-color="#5ea0d0" stop-opacity="0.08"/>
<stop offset="1" stop-color="#5ea0d0" stop-opacity="0"/>
</radialGradient>
<radialGradient id="glow2" cx="0.2" cy="0.85" r="0.7">
<stop offset="0" stop-color="#5ea0d0" stop-opacity="0.18"/>
<stop offset="1" stop-color="#5ea0d0" stop-opacity="0"/>
</radialGradient>
</defs>
<rect width="1600" height="1000" fill="url(#bg)"/>
<g><line x1="0" y1="0" x2="0" y2="1000" stroke="#ffffff" stroke-opacity="0.03"/><line x1="80" y1="0" x2="80" y2="1000" stroke="#ffffff" stroke-opacity="0.03"/><line x1="160" y1="0" x2="160" y2="1000" stroke="#ffffff" stroke-opacity="0.03"/><line x1="240" y1="0" x2="240" y2="1000" stroke="#ffffff" stroke-opacity="0.03"/><line x1="320" y1="0" x2="320" y2="1000" stroke="#ffffff" stroke-opacity="0.03"/><line x1="400" y1="0" x2="400" y2="1000" stroke="#ffffff" stroke-opacity="0.03"/><line x1="480" y1="0" x2="480" y2="1000" stroke="#ffffff" stroke-opacity="0.03"/><line x1="560" y1="0" x2="560" y2="1000" stroke="#ffffff" stroke-opacity="0.03"/><line x1="640" y1="0" x2="640" y2="1000" stroke="#ffffff" stroke-opacity="0.03"/><line x1="720" y1="0" x2="720" y2="1000" stroke="#ffffff" stroke-opacity="0.03"/><line x1="800" y1="0" x2="800" y2="1000" stroke="#ffffff" stroke-opacity="0.03"/><line x1="880" y1="0" x2="880" y2="1000" stroke="#ffffff" stroke-opacity="0.03"/><line x1="960" y1="0" x2="960" y2="1000" stroke="#ffffff" stroke-opacity="0.03"/><line x1="1040" y1="0" x2="1040" y2="1000" stroke="#ffffff" stroke-opacity="0.03"/><line x1="1120" y1="0" x2="1120" y2="1000" stroke="#ffffff" stroke-opacity="0.03"/><line x1="1200" y1="0" x2="1200" y2="1000" stroke="#ffffff" stroke-opacity="0.03"/><line x1="1280" y1="0" x2="1280" y2="1000" stroke="#ffffff" stroke-opacity="0.03"/><line x1="1360" y1="0" x2="1360" y2="1000" stroke="#ffffff" stroke-opacity="0.03"/><line x1="1440" y1="0" x2="1440" y2="1000" stroke="#ffffff" stroke-opacity="0.03"/><line x1="1520" y1="0" x2="1520" y2="1000" stroke="#ffffff" stroke-opacity="0.03"/><line x1="1600" y1="0" x2="1600" y2="1000" stroke="#ffffff" stroke-opacity="0.03"/><line x1="0" y1="0" x2="1600" y2="0" stroke="#ffffff" stroke-opacity="0.03"/><line x1="0" y1="80" x2="1600" y2="80" stroke="#ffffff" stroke-opacity="0.03"/><line x1="0" y1="160" x2="1600" y2="160" stroke="#ffffff" stroke-opacity="0.03"/><line x1="0" y1="240" x2="1600" y2="240" stroke="#ffffff" stroke-opacity="0.03"/><line x1="0" y1="320" x2="1600" y2="320" stroke="#ffffff" stroke-opacity="0.03"/><line x1="0" y1="400" x2="1600" y2="400" stroke="#ffffff" stroke-opacity="0.03"/><line x1="0" y1="480" x2="1600" y2="480" stroke="#ffffff" stroke-opacity="0.03"/><line x1="0" y1="560" x2="1600" y2="560" stroke="#ffffff" stroke-opacity="0.03"/><line x1="0" y1="640" x2="1600" y2="640" stroke="#ffffff" stroke-opacity="0.03"/><line x1="0" y1="720" x2="1600" y2="720" stroke="#ffffff" stroke-opacity="0.03"/><line x1="0" y1="800" x2="1600" y2="800" stroke="#ffffff" stroke-opacity="0.03"/><line x1="0" y1="880" x2="1600" y2="880" stroke="#ffffff" stroke-opacity="0.03"/><line x1="0" y1="960" x2="1600" y2="960" stroke="#ffffff" stroke-opacity="0.03"/></g>
<rect width="1600" height="1000" fill="url(#glow)"/>
<rect width="1600" height="1000" fill="url(#glow2)"/>
<g><circle cx="612" cy="372" r="0.9" fill="#5ea0d0" opacity="0.30"/><circle cx="1385" cy="788" r="2.3" fill="#5ea0d0" opacity="0.16"/><circle cx="231" cy="472" r="2.2" fill="#5ea0d0" opacity="0.24"/><circle cx="1586" cy="469" r="2.0" fill="#5ea0d0" opacity="0.21"/><circle cx="1000" cy="247" r="0.6" fill="#5ea0d0" opacity="0.51"/><circle cx="919" cy="116" r="0.7" fill="#5ea0d0" opacity="0.20"/><circle cx="1167" cy="684" r="1.9" fill="#5ea0d0" opacity="0.42"/><circle cx="1357" cy="47" r="2.1" fill="#5ea0d0" opacity="0.38"/><circle cx="814" cy="967" r="1.5" fill="#5ea0d0" opacity="0.55"/><circle cx="1134" cy="666" r="1.5" fill="#5ea0d0" opacity="0.47"/><circle cx="1315" cy="67" r="0.7" fill="#5ea0d0" opacity="0.40"/><circle cx="1390" cy="890" r="1.2" fill="#5ea0d0" opacity="0.45"/><circle cx="188" cy="28" r="0.7" fill="#5ea0d0" opacity="0.25"/><circle cx="629" cy="969" r="2.2" fill="#5ea0d0" opacity="0.31"/><circle cx="1550" cy="80" r="0.8" fill="#5ea0d0" opacity="0.54"/><circle cx="705" cy="760" r="0.8" fill="#5ea0d0" opacity="0.15"/><circle cx="1185" cy="741" r="2.0" fill="#5ea0d0" opacity="0.41"/><circle cx="764" cy="51" r="2.2" fill="#5ea0d0" opacity="0.13"/><circle cx="1046" cy="84" r="2.4" fill="#5ea0d0" opacity="0.56"/><circle cx="1500" cy="303" r="1.4" fill="#5ea0d0" opacity="0.31"/><circle cx="126" cy="968" r="1.8" fill="#5ea0d0" opacity="0.49"/><circle cx="58" cy="334" r="2.0" fill="#5ea0d0" opacity="0.27"/><circle cx="859" cy="798" r="0.6" fill="#5ea0d0" opacity="0.10"/><circle cx="1107" cy="934" r="1.8" fill="#5ea0d0" opacity="0.52"/><circle cx="533" cy="68" r="0.5" fill="#5ea0d0" opacity="0.58"/><circle cx="447" cy="653" r="1.7" fill="#5ea0d0" opacity="0.50"/><circle cx="886" cy="784" r="1.6" fill="#5ea0d0" opacity="0.53"/><circle cx="1269" cy="239" r="1.7" fill="#5ea0d0" opacity="0.46"/><circle cx="1058" cy="279" r="2.3" fill="#5ea0d0" opacity="0.40"/><circle cx="694" cy="972" r="2.2" fill="#5ea0d0" opacity="0.33"/><circle cx="1267" cy="469" r="1.0" fill="#5ea0d0" opacity="0.60"/><circle cx="236" cy="436" r="1.2" fill="#5ea0d0" opacity="0.42"/><circle cx="163" cy="360" r="0.6" fill="#5ea0d0" opacity="0.24"/><circle cx="239" cy="265" r="1.0" fill="#5ea0d0" opacity="0.15"/><circle cx="638" cy="491" r="1.2" fill="#5ea0d0" opacity="0.49"/><circle cx="902" cy="680" r="0.7" fill="#5ea0d0" opacity="0.28"/><circle cx="1585" cy="866" r="1.4" fill="#5ea0d0" opacity="0.17"/><circle cx="950" cy="859" r="2.1" fill="#5ea0d0" opacity="0.23"/><circle cx="1425" cy="621" r="1.7" fill="#5ea0d0" opacity="0.54"/><circle cx="756" cy="383" r="0.6" fill="#5ea0d0" opacity="0.42"/></g>
</svg>