<svg xmlns="http://www.w3.org/2000/svg" width="1920" height="1080" viewBox="0 0 1920 1080">
<defs>
<linearGradient id="bg" x1="0" y1="0" x2="1" y2="1">
<stop offset="0" stop-color="#0c1424"/><stop offset="1" stop-color="#070708"/>
</linearGradient>
<radialGradient id="glow" cx="0.7" cy="0.25" r="0.8">
<stop offset="0" stop-color="#D4AF37" stop-opacity="0.35"/>
<stop offset="0.5" stop-color="#D4AF37" stop-opacity="0.08"/>
<stop offset="1" stop-color="#D4AF37" stop-opacity="0"/>
</radialGradient>
<radialGradient id="glow2" cx="0.2" cy="0.85" r="0.7">
<stop offset="0" stop-color="#D4AF37" stop-opacity="0.18"/>
<stop offset="1" stop-color="#D4AF37" stop-opacity="0"/>
</radialGradient>
</defs>
<rect width="1920" height="1080" fill="url(#bg)"/>
<g><line x1="0" y1="0" x2="0" y2="1080" stroke="#ffffff" stroke-opacity="0.03"/><line x1="80" y1="0" x2="80" y2="1080" stroke="#ffffff" stroke-opacity="0.03"/><line x1="160" y1="0" x2="160" y2="1080" stroke="#ffffff" stroke-opacity="0.03"/><line x1="240" y1="0" x2="240" y2="1080" stroke="#ffffff" stroke-opacity="0.03"/><line x1="320" y1="0" x2="320" y2="1080" stroke="#ffffff" stroke-opacity="0.03"/><line x1="400" y1="0" x2="400" y2="1080" stroke="#ffffff" stroke-opacity="0.03"/><line x1="480" y1="0" x2="480" y2="1080" stroke="#ffffff" stroke-opacity="0.03"/><line x1="560" y1="0" x2="560" y2="1080" stroke="#ffffff" stroke-opacity="0.03"/><line x1="640" y1="0" x2="640" y2="1080" stroke="#ffffff" stroke-opacity="0.03"/><line x1="720" y1="0" x2="720" y2="1080" stroke="#ffffff" stroke-opacity="0.03"/><line x1="800" y1="0" x2="800" y2="1080" stroke="#ffffff" stroke-opacity="0.03"/><line x1="880" y1="0" x2="880" y2="1080" stroke="#ffffff" stroke-opacity="0.03"/><line x1="960" y1="0" x2="960" y2="1080" stroke="#ffffff" stroke-opacity="0.03"/><line x1="1040" y1="0" x2="1040" y2="1080" stroke="#ffffff" stroke-opacity="0.03"/><line x1="1120" y1="0" x2="1120" y2="1080" stroke="#ffffff" stroke-opacity="0.03"/><line x1="1200" y1="0" x2="1200" y2="1080" stroke="#ffffff" stroke-opacity="0.03"/><line x1="1280" y1="0" x2="1280" y2="1080" stroke="#ffffff" stroke-opacity="0.03"/><line x1="1360" y1="0" x2="1360" y2="1080" stroke="#ffffff" stroke-opacity="0.03"/><line x1="1440" y1="0" x2="1440" y2="1080" stroke="#ffffff" stroke-opacity="0.03"/><line x1="1520" y1="0" x2="1520" y2="1080" stroke="#ffffff" stroke-opacity="0.03"/><line x1="1600" y1="0" x2="1600" y2="1080" stroke="#ffffff" stroke-opacity="0.03"/><line x1="1680" y1="0" x2="1680" y2="1080" stroke="#ffffff" stroke-opacity="0.03"/><line x1="1760" y1="0" x2="1760" y2="1080" stroke="#ffffff" stroke-opacity="0.03"/><line x1="1840" y1="0" x2="1840" y2="1080" stroke="#ffffff" stroke-opacity="0.03"/><line x1="1920" y1="0" x2="1920" y2="1080" stroke="#ffffff" stroke-opacity="0.03"/><line x1="0" y1="0" x2="1920" y2="0" stroke="#ffffff" stroke-opacity="0.03"/><line x1="0" y1="80" x2="1920" y2="80" stroke="#ffffff" stroke-opacity="0.03"/><line x1="0" y1="160" x2="1920" y2="160" stroke="#ffffff" stroke-opacity="0.03"/><line x1="0" y1="240" x2="1920" y2="240" stroke="#ffffff" stroke-opacity="0.03"/><line x1="0" y1="320" x2="1920" y2="320" stroke="#ffffff" stroke-opacity="0.03"/><line x1="0" y1="400" x2="1920" y2="400" stroke="#ffffff" stroke-opacity="0.03"/><line x1="0" y1="480" x2="1920" y2="480" stroke="#ffffff" stroke-opacity="0.03"/><line x1="0" y1="560" x2="1920" y2="560" stroke="#ffffff" stroke-opacity="0.03"/><line x1="0" y1="640" x2="1920" y2="640" stroke="#ffffff" stroke-opacity="0.03"/><line x1="0" y1="720" x2="1920" y2="720" stroke="#ffffff" stroke-opacity="0.03"/><line x1="0" y1="800" x2="1920" y2="800" stroke="#ffffff" stroke-opacity="0.03"/><line x1="0" y1="880" x2="1920" y2="880" stroke="#ffffff" stroke-opacity="0.03"/><line x1="0" y1="960" x2="1920" y2="960" stroke="#ffffff" stroke-opacity="0.03"/><line x1="0" y1="1040" x2="1920" y2="1040" stroke="#ffffff" stroke-opacity="0.03"/></g>
<rect width="1920" height="1080" fill="url(#glow)"/>
<rect width="1920" height="1080" fill="url(#glow2)"/>
<g><circle cx="1740" cy="511" r="0.8" fill="#D4AF37" opacity="0.30"/><circle cx="234" cy="447" r="2.2" fill="#D4AF37" opacity="0.20"/><circle cx="731" cy="1041" r="1.4" fill="#D4AF37" opacity="0.21"/><circle cx="34" cy="915" r="0.8" fill="#D4AF37" opacity="0.36"/><circle cx="1706" cy="223" r="2.0" fill="#D4AF37" opacity="0.30"/><circle cx="316" cy="50" r="0.8" fill="#D4AF37" opacity="0.55"/><circle cx="95" cy="869" r="1.4" fill="#D4AF37" opacity="0.15"/><circle cx="293" cy="550" r="0.7" fill="#D4AF37" opacity="0.14"/><circle cx="33" cy="147" r="1.8" fill="#D4AF37" opacity="0.49"/><circle cx="106" cy="726" r="0.6" fill="#D4AF37" opacity="0.41"/><circle cx="803" cy="665" r="1.9" fill="#D4AF37" opacity="0.46"/><circle cx="672" cy="122" r="0.6" fill="#D4AF37" opacity="0.59"/><circle cx="482" cy="308" r="2.2" fill="#D4AF37" opacity="0.21"/><circle cx="102" cy="976" r="1.7" fill="#D4AF37" opacity="0.25"/><circle cx="1110" cy="558" r="0.8" fill="#D4AF37" opacity="0.39"/><circle cx="662" cy="448" r="1.5" fill="#D4AF37" opacity="0.39"/><circle cx="737" cy="468" r="1.4" fill="#D4AF37" opacity="0.11"/><circle cx="509" cy="189" r="1.7" fill="#D4AF37" opacity="0.54"/><circle cx="1089" cy="624" r="2.2" fill="#D4AF37" opacity="0.22"/><circle cx="800" cy="851" r="2.4" fill="#D4AF37" opacity="0.39"/><circle cx="586" cy="1007" r="1.2" fill="#D4AF37" opacity="0.52"/><circle cx="1563" cy="913" r="1.8" fill="#D4AF37" opacity="0.19"/><circle cx="136" cy="928" r="2.4" fill="#D4AF37" opacity="0.15"/><circle cx="758" cy="347" r="2.3" fill="#D4AF37" opacity="0.39"/><circle cx="1423" cy="131" r="0.7" fill="#D4AF37" opacity="0.21"/><circle cx="1403" cy="111" r="1.4" fill="#D4AF37" opacity="0.51"/><circle cx="1666" cy="782" r="1.5" fill="#D4AF37" opacity="0.45"/><circle cx="207" cy="1065" r="1.3" fill="#D4AF37" opacity="0.42"/><circle cx="732" cy="560" r="0.4" fill="#D4AF37" opacity="0.22"/><circle cx="513" cy="531" r="2.3" fill="#D4AF37" opacity="0.25"/><circle cx="1843" cy="957" r="1.8" fill="#D4AF37" opacity="0.30"/><circle cx="250" cy="412" r="0.8" fill="#D4AF37" opacity="0.33"/><circle cx="25" cy="1022" r="1.1" fill="#D4AF37" opacity="0.49"/><circle cx="607" cy="366" r="1.4" fill="#D4AF37" opacity="0.47"/><circle cx="634" cy="644" r="1.8" fill="#D4AF37" opacity="0.48"/><circle cx="1108" cy="233" r="2.4" fill="#D4AF37" opacity="0.24"/><circle cx="237" cy="400" r="1.8" fill="#D4AF37" opacity="0.42"/><circle cx="1079" cy="1003" r="1.9" fill="#D4AF37" opacity="0.47"/><circle cx="1407" cy="319" r="1.1" fill="#D4AF37" opacity="0.24"/><circle cx="1288" cy="149" r="1.3" fill="#D4AF37" opacity="0.37"/></g>
</svg>