<svg xmlns="http://www.w3.org/2000/svg" width="1600" height="1000" viewBox="0 0 1600 1000">
<defs>
<linearGradient id="bg" x1="0" y1="0" x2="1" y2="1">
<stop offset="0" stop-color="#1f0d0d"/><stop offset="1" stop-color="#0a0a0c"/>
</linearGradient>
<radialGradient id="glow" cx="0.7" cy="0.25" r="0.8">
<stop offset="0" stop-color="#e08a4a" stop-opacity="0.35"/>
<stop offset="0.5" stop-color="#e08a4a" stop-opacity="0.08"/>
<stop offset="1" stop-color="#e08a4a" stop-opacity="0"/>
</radialGradient>
<radialGradient id="glow2" cx="0.2" cy="0.85" r="0.7">
<stop offset="0" stop-color="#e08a4a" stop-opacity="0.18"/>
<stop offset="1" stop-color="#e08a4a" stop-opacity="0"/>
</radialGradient>
</defs>
<rect width="1600" height="1000" fill="url(#bg)"/>
<g><line x1="0" y1="0" x2="0" y2="1000" stroke="#ffffff" stroke-opacity="0.03"/><line x1="80" y1="0" x2="80" y2="1000" stroke="#ffffff" stroke-opacity="0.03"/><line x1="160" y1="0" x2="160" y2="1000" stroke="#ffffff" stroke-opacity="0.03"/><line x1="240" y1="0" x2="240" y2="1000" stroke="#ffffff" stroke-opacity="0.03"/><line x1="320" y1="0" x2="320" y2="1000" stroke="#ffffff" stroke-opacity="0.03"/><line x1="400" y1="0" x2="400" y2="1000" stroke="#ffffff" stroke-opacity="0.03"/><line x1="480" y1="0" x2="480" y2="1000" stroke="#ffffff" stroke-opacity="0.03"/><line x1="560" y1="0" x2="560" y2="1000" stroke="#ffffff" stroke-opacity="0.03"/><line x1="640" y1="0" x2="640" y2="1000" stroke="#ffffff" stroke-opacity="0.03"/><line x1="720" y1="0" x2="720" y2="1000" stroke="#ffffff" stroke-opacity="0.03"/><line x1="800" y1="0" x2="800" y2="1000" stroke="#ffffff" stroke-opacity="0.03"/><line x1="880" y1="0" x2="880" y2="1000" stroke="#ffffff" stroke-opacity="0.03"/><line x1="960" y1="0" x2="960" y2="1000" stroke="#ffffff" stroke-opacity="0.03"/><line x1="1040" y1="0" x2="1040" y2="1000" stroke="#ffffff" stroke-opacity="0.03"/><line x1="1120" y1="0" x2="1120" y2="1000" stroke="#ffffff" stroke-opacity="0.03"/><line x1="1200" y1="0" x2="1200" y2="1000" stroke="#ffffff" stroke-opacity="0.03"/><line x1="1280" y1="0" x2="1280" y2="1000" stroke="#ffffff" stroke-opacity="0.03"/><line x1="1360" y1="0" x2="1360" y2="1000" stroke="#ffffff" stroke-opacity="0.03"/><line x1="1440" y1="0" x2="1440" y2="1000" stroke="#ffffff" stroke-opacity="0.03"/><line x1="1520" y1="0" x2="1520" y2="1000" stroke="#ffffff" stroke-opacity="0.03"/><line x1="1600" y1="0" x2="1600" y2="1000" stroke="#ffffff" stroke-opacity="0.03"/><line x1="0" y1="0" x2="1600" y2="0" stroke="#ffffff" stroke-opacity="0.03"/><line x1="0" y1="80" x2="1600" y2="80" stroke="#ffffff" stroke-opacity="0.03"/><line x1="0" y1="160" x2="1600" y2="160" stroke="#ffffff" stroke-opacity="0.03"/><line x1="0" y1="240" x2="1600" y2="240" stroke="#ffffff" stroke-opacity="0.03"/><line x1="0" y1="320" x2="1600" y2="320" stroke="#ffffff" stroke-opacity="0.03"/><line x1="0" y1="400" x2="1600" y2="400" stroke="#ffffff" stroke-opacity="0.03"/><line x1="0" y1="480" x2="1600" y2="480" stroke="#ffffff" stroke-opacity="0.03"/><line x1="0" y1="560" x2="1600" y2="560" stroke="#ffffff" stroke-opacity="0.03"/><line x1="0" y1="640" x2="1600" y2="640" stroke="#ffffff" stroke-opacity="0.03"/><line x1="0" y1="720" x2="1600" y2="720" stroke="#ffffff" stroke-opacity="0.03"/><line x1="0" y1="800" x2="1600" y2="800" stroke="#ffffff" stroke-opacity="0.03"/><line x1="0" y1="880" x2="1600" y2="880" stroke="#ffffff" stroke-opacity="0.03"/><line x1="0" y1="960" x2="1600" y2="960" stroke="#ffffff" stroke-opacity="0.03"/></g>
<rect width="1600" height="1000" fill="url(#glow)"/>
<rect width="1600" height="1000" fill="url(#glow2)"/>
<g><circle cx="1340" cy="973" r="2.2" fill="#e08a4a" opacity="0.51"/><circle cx="244" cy="747" r="0.4" fill="#e08a4a" opacity="0.26"/><circle cx="375" cy="941" r="2.2" fill="#e08a4a" opacity="0.35"/><circle cx="662" cy="288" r="1.7" fill="#e08a4a" opacity="0.49"/><circle cx="178" cy="814" r="2.3" fill="#e08a4a" opacity="0.39"/><circle cx="600" cy="440" r="1.3" fill="#e08a4a" opacity="0.22"/><circle cx="145" cy="261" r="2.3" fill="#e08a4a" opacity="0.23"/><circle cx="115" cy="622" r="2.1" fill="#e08a4a" opacity="0.44"/><circle cx="172" cy="306" r="0.8" fill="#e08a4a" opacity="0.48"/><circle cx="692" cy="415" r="1.2" fill="#e08a4a" opacity="0.21"/><circle cx="237" cy="795" r="0.6" fill="#e08a4a" opacity="0.24"/><circle cx="1534" cy="138" r="1.5" fill="#e08a4a" opacity="0.54"/><circle cx="1446" cy="324" r="0.6" fill="#e08a4a" opacity="0.56"/><circle cx="576" cy="410" r="1.8" fill="#e08a4a" opacity="0.58"/><circle cx="419" cy="310" r="2.3" fill="#e08a4a" opacity="0.31"/><circle cx="972" cy="472" r="1.9" fill="#e08a4a" opacity="0.48"/><circle cx="42" cy="858" r="1.9" fill="#e08a4a" opacity="0.25"/><circle cx="1437" cy="209" r="1.9" fill="#e08a4a" opacity="0.29"/><circle cx="122" cy="848" r="2.0" fill="#e08a4a" opacity="0.18"/><circle cx="722" cy="895" r="2.0" fill="#e08a4a" opacity="0.36"/><circle cx="1049" cy="797" r="0.7" fill="#e08a4a" opacity="0.12"/><circle cx="1186" cy="21" r="1.4" fill="#e08a4a" opacity="0.14"/><circle cx="345" cy="786" r="1.8" fill="#e08a4a" opacity="0.32"/><circle cx="174" cy="314" r="1.0" fill="#e08a4a" opacity="0.45"/><circle cx="521" cy="797" r="2.0" fill="#e08a4a" opacity="0.22"/><circle cx="678" cy="677" r="1.0" fill="#e08a4a" opacity="0.39"/><circle cx="1183" cy="698" r="1.2" fill="#e08a4a" opacity="0.11"/><circle cx="91" cy="533" r="2.0" fill="#e08a4a" opacity="0.33"/><circle cx="356" cy="219" r="1.4" fill="#e08a4a" opacity="0.33"/><circle cx="780" cy="725" r="1.0" fill="#e08a4a" opacity="0.37"/><circle cx="1281" cy="163" r="2.1" fill="#e08a4a" opacity="0.41"/><circle cx="943" cy="649" r="2.2" fill="#e08a4a" opacity="0.55"/><circle cx="188" cy="172" r="1.6" fill="#e08a4a" opacity="0.48"/><circle cx="859" cy="410" r="1.7" fill="#e08a4a" opacity="0.38"/><circle cx="1045" cy="928" r="1.6" fill="#e08a4a" opacity="0.14"/><circle cx="828" cy="96" r="2.3" fill="#e08a4a" opacity="0.48"/><circle cx="1250" cy="980" r="1.2" fill="#e08a4a" opacity="0.51"/><circle cx="1227" cy="478" r="1.3" fill="#e08a4a" opacity="0.21"/><circle cx="1141" cy="705" r="0.6" fill="#e08a4a" opacity="0.45"/><circle cx="1133" cy="492" r="1.9" fill="#e08a4a" opacity="0.28"/></g>
</svg>