<svg xmlns="http://www.w3.org/2000/svg" width="1600" height="1000" viewBox="0 0 1600 1000">
<defs>
<linearGradient id="bg" x1="0" y1="0" x2="1" y2="1">
<stop offset="0" stop-color="#06121f"/><stop offset="1" stop-color="#0a0a0c"/>
</linearGradient>
<radialGradient id="glow" cx="0.7" cy="0.25" r="0.8">
<stop offset="0" stop-color="#4aa0d0" stop-opacity="0.35"/>
<stop offset="0.5" stop-color="#4aa0d0" stop-opacity="0.08"/>
<stop offset="1" stop-color="#4aa0d0" stop-opacity="0"/>
</radialGradient>
<radialGradient id="glow2" cx="0.2" cy="0.85" r="0.7">
<stop offset="0" stop-color="#4aa0d0" stop-opacity="0.18"/>
<stop offset="1" stop-color="#4aa0d0" stop-opacity="0"/>
</radialGradient>
</defs>
<rect width="1600" height="1000" fill="url(#bg)"/>
<g><line x1="0" y1="0" x2="0" y2="1000" stroke="#ffffff" stroke-opacity="0.03"/><line x1="80" y1="0" x2="80" y2="1000" stroke="#ffffff" stroke-opacity="0.03"/><line x1="160" y1="0" x2="160" y2="1000" stroke="#ffffff" stroke-opacity="0.03"/><line x1="240" y1="0" x2="240" y2="1000" stroke="#ffffff" stroke-opacity="0.03"/><line x1="320" y1="0" x2="320" y2="1000" stroke="#ffffff" stroke-opacity="0.03"/><line x1="400" y1="0" x2="400" y2="1000" stroke="#ffffff" stroke-opacity="0.03"/><line x1="480" y1="0" x2="480" y2="1000" stroke="#ffffff" stroke-opacity="0.03"/><line x1="560" y1="0" x2="560" y2="1000" stroke="#ffffff" stroke-opacity="0.03"/><line x1="640" y1="0" x2="640" y2="1000" stroke="#ffffff" stroke-opacity="0.03"/><line x1="720" y1="0" x2="720" y2="1000" stroke="#ffffff" stroke-opacity="0.03"/><line x1="800" y1="0" x2="800" y2="1000" stroke="#ffffff" stroke-opacity="0.03"/><line x1="880" y1="0" x2="880" y2="1000" stroke="#ffffff" stroke-opacity="0.03"/><line x1="960" y1="0" x2="960" y2="1000" stroke="#ffffff" stroke-opacity="0.03"/><line x1="1040" y1="0" x2="1040" y2="1000" stroke="#ffffff" stroke-opacity="0.03"/><line x1="1120" y1="0" x2="1120" y2="1000" stroke="#ffffff" stroke-opacity="0.03"/><line x1="1200" y1="0" x2="1200" y2="1000" stroke="#ffffff" stroke-opacity="0.03"/><line x1="1280" y1="0" x2="1280" y2="1000" stroke="#ffffff" stroke-opacity="0.03"/><line x1="1360" y1="0" x2="1360" y2="1000" stroke="#ffffff" stroke-opacity="0.03"/><line x1="1440" y1="0" x2="1440" y2="1000" stroke="#ffffff" stroke-opacity="0.03"/><line x1="1520" y1="0" x2="1520" y2="1000" stroke="#ffffff" stroke-opacity="0.03"/><line x1="1600" y1="0" x2="1600" y2="1000" stroke="#ffffff" stroke-opacity="0.03"/><line x1="0" y1="0" x2="1600" y2="0" stroke="#ffffff" stroke-opacity="0.03"/><line x1="0" y1="80" x2="1600" y2="80" stroke="#ffffff" stroke-opacity="0.03"/><line x1="0" y1="160" x2="1600" y2="160" stroke="#ffffff" stroke-opacity="0.03"/><line x1="0" y1="240" x2="1600" y2="240" stroke="#ffffff" stroke-opacity="0.03"/><line x1="0" y1="320" x2="1600" y2="320" stroke="#ffffff" stroke-opacity="0.03"/><line x1="0" y1="400" x2="1600" y2="400" stroke="#ffffff" stroke-opacity="0.03"/><line x1="0" y1="480" x2="1600" y2="480" stroke="#ffffff" stroke-opacity="0.03"/><line x1="0" y1="560" x2="1600" y2="560" stroke="#ffffff" stroke-opacity="0.03"/><line x1="0" y1="640" x2="1600" y2="640" stroke="#ffffff" stroke-opacity="0.03"/><line x1="0" y1="720" x2="1600" y2="720" stroke="#ffffff" stroke-opacity="0.03"/><line x1="0" y1="800" x2="1600" y2="800" stroke="#ffffff" stroke-opacity="0.03"/><line x1="0" y1="880" x2="1600" y2="880" stroke="#ffffff" stroke-opacity="0.03"/><line x1="0" y1="960" x2="1600" y2="960" stroke="#ffffff" stroke-opacity="0.03"/></g>
<rect width="1600" height="1000" fill="url(#glow)"/>
<rect width="1600" height="1000" fill="url(#glow2)"/>
<g><circle cx="844" cy="140" r="2.4" fill="#4aa0d0" opacity="0.38"/><circle cx="255" cy="24" r="0.5" fill="#4aa0d0" opacity="0.54"/><circle cx="532" cy="402" r="1.7" fill="#4aa0d0" opacity="0.47"/><circle cx="93" cy="588" r="1.3" fill="#4aa0d0" opacity="0.15"/><circle cx="788" cy="198" r="2.3" fill="#4aa0d0" opacity="0.31"/><circle cx="345" cy="780" r="2.3" fill="#4aa0d0" opacity="0.27"/><circle cx="1422" cy="344" r="1.5" fill="#4aa0d0" opacity="0.33"/><circle cx="1261" cy="931" r="0.4" fill="#4aa0d0" opacity="0.19"/><circle cx="72" cy="616" r="1.8" fill="#4aa0d0" opacity="0.19"/><circle cx="849" cy="556" r="1.9" fill="#4aa0d0" opacity="0.43"/><circle cx="1275" cy="671" r="2.3" fill="#4aa0d0" opacity="0.34"/><circle cx="942" cy="646" r="0.9" fill="#4aa0d0" opacity="0.47"/><circle cx="663" cy="406" r="1.7" fill="#4aa0d0" opacity="0.50"/><circle cx="424" cy="792" r="0.7" fill="#4aa0d0" opacity="0.23"/><circle cx="1491" cy="661" r="1.1" fill="#4aa0d0" opacity="0.46"/><circle cx="1132" cy="50" r="2.0" fill="#4aa0d0" opacity="0.53"/><circle cx="1104" cy="752" r="1.8" fill="#4aa0d0" opacity="0.28"/><circle cx="730" cy="422" r="1.3" fill="#4aa0d0" opacity="0.18"/><circle cx="1093" cy="475" r="0.6" fill="#4aa0d0" opacity="0.52"/><circle cx="408" cy="391" r="1.4" fill="#4aa0d0" opacity="0.28"/><circle cx="1159" cy="243" r="1.1" fill="#4aa0d0" opacity="0.56"/><circle cx="1383" cy="885" r="1.4" fill="#4aa0d0" opacity="0.53"/><circle cx="1279" cy="385" r="2.1" fill="#4aa0d0" opacity="0.45"/><circle cx="621" cy="660" r="1.0" fill="#4aa0d0" opacity="0.19"/><circle cx="1274" cy="498" r="0.6" fill="#4aa0d0" opacity="0.53"/><circle cx="1416" cy="624" r="1.9" fill="#4aa0d0" opacity="0.14"/><circle cx="1106" cy="601" r="1.8" fill="#4aa0d0" opacity="0.27"/><circle cx="709" cy="70" r="0.9" fill="#4aa0d0" opacity="0.29"/><circle cx="1238" cy="628" r="2.3" fill="#4aa0d0" opacity="0.20"/><circle cx="968" cy="686" r="0.4" fill="#4aa0d0" opacity="0.25"/><circle cx="920" cy="64" r="0.7" fill="#4aa0d0" opacity="0.36"/><circle cx="1040" cy="344" r="0.7" fill="#4aa0d0" opacity="0.54"/><circle cx="83" cy="766" r="0.7" fill="#4aa0d0" opacity="0.23"/><circle cx="461" cy="563" r="1.7" fill="#4aa0d0" opacity="0.15"/><circle cx="943" cy="458" r="2.2" fill="#4aa0d0" opacity="0.53"/><circle cx="1567" cy="387" r="2.0" fill="#4aa0d0" opacity="0.27"/><circle cx="706" cy="174" r="2.4" fill="#4aa0d0" opacity="0.44"/><circle cx="534" cy="308" r="1.6" fill="#4aa0d0" opacity="0.20"/><circle cx="1510" cy="690" r="1.1" fill="#4aa0d0" opacity="0.46"/><circle cx="130" cy="845" r="1.2" fill="#4aa0d0" opacity="0.26"/></g>
</svg>