<svg xmlns="http://www.w3.org/2000/svg" width="1600" height="1000" viewBox="0 0 1600 1000">
<defs>
<linearGradient id="bg" x1="0" y1="0" x2="1" y2="1">
<stop offset="0" stop-color="#1a0a1f"/><stop offset="1" stop-color="#0a0a0c"/>
</linearGradient>
<radialGradient id="glow" cx="0.7" cy="0.25" r="0.8">
<stop offset="0" stop-color="#d06aa8" stop-opacity="0.35"/>
<stop offset="0.5" stop-color="#d06aa8" stop-opacity="0.08"/>
<stop offset="1" stop-color="#d06aa8" stop-opacity="0"/>
</radialGradient>
<radialGradient id="glow2" cx="0.2" cy="0.85" r="0.7">
<stop offset="0" stop-color="#d06aa8" stop-opacity="0.18"/>
<stop offset="1" stop-color="#d06aa8" stop-opacity="0"/>
</radialGradient>
</defs>
<rect width="1600" height="1000" fill="url(#bg)"/>
<g><line x1="0" y1="0" x2="0" y2="1000" stroke="#ffffff" stroke-opacity="0.03"/><line x1="80" y1="0" x2="80" y2="1000" stroke="#ffffff" stroke-opacity="0.03"/><line x1="160" y1="0" x2="160" y2="1000" stroke="#ffffff" stroke-opacity="0.03"/><line x1="240" y1="0" x2="240" y2="1000" stroke="#ffffff" stroke-opacity="0.03"/><line x1="320" y1="0" x2="320" y2="1000" stroke="#ffffff" stroke-opacity="0.03"/><line x1="400" y1="0" x2="400" y2="1000" stroke="#ffffff" stroke-opacity="0.03"/><line x1="480" y1="0" x2="480" y2="1000" stroke="#ffffff" stroke-opacity="0.03"/><line x1="560" y1="0" x2="560" y2="1000" stroke="#ffffff" stroke-opacity="0.03"/><line x1="640" y1="0" x2="640" y2="1000" stroke="#ffffff" stroke-opacity="0.03"/><line x1="720" y1="0" x2="720" y2="1000" stroke="#ffffff" stroke-opacity="0.03"/><line x1="800" y1="0" x2="800" y2="1000" stroke="#ffffff" stroke-opacity="0.03"/><line x1="880" y1="0" x2="880" y2="1000" stroke="#ffffff" stroke-opacity="0.03"/><line x1="960" y1="0" x2="960" y2="1000" stroke="#ffffff" stroke-opacity="0.03"/><line x1="1040" y1="0" x2="1040" y2="1000" stroke="#ffffff" stroke-opacity="0.03"/><line x1="1120" y1="0" x2="1120" y2="1000" stroke="#ffffff" stroke-opacity="0.03"/><line x1="1200" y1="0" x2="1200" y2="1000" stroke="#ffffff" stroke-opacity="0.03"/><line x1="1280" y1="0" x2="1280" y2="1000" stroke="#ffffff" stroke-opacity="0.03"/><line x1="1360" y1="0" x2="1360" y2="1000" stroke="#ffffff" stroke-opacity="0.03"/><line x1="1440" y1="0" x2="1440" y2="1000" stroke="#ffffff" stroke-opacity="0.03"/><line x1="1520" y1="0" x2="1520" y2="1000" stroke="#ffffff" stroke-opacity="0.03"/><line x1="1600" y1="0" x2="1600" y2="1000" stroke="#ffffff" stroke-opacity="0.03"/><line x1="0" y1="0" x2="1600" y2="0" stroke="#ffffff" stroke-opacity="0.03"/><line x1="0" y1="80" x2="1600" y2="80" stroke="#ffffff" stroke-opacity="0.03"/><line x1="0" y1="160" x2="1600" y2="160" stroke="#ffffff" stroke-opacity="0.03"/><line x1="0" y1="240" x2="1600" y2="240" stroke="#ffffff" stroke-opacity="0.03"/><line x1="0" y1="320" x2="1600" y2="320" stroke="#ffffff" stroke-opacity="0.03"/><line x1="0" y1="400" x2="1600" y2="400" stroke="#ffffff" stroke-opacity="0.03"/><line x1="0" y1="480" x2="1600" y2="480" stroke="#ffffff" stroke-opacity="0.03"/><line x1="0" y1="560" x2="1600" y2="560" stroke="#ffffff" stroke-opacity="0.03"/><line x1="0" y1="640" x2="1600" y2="640" stroke="#ffffff" stroke-opacity="0.03"/><line x1="0" y1="720" x2="1600" y2="720" stroke="#ffffff" stroke-opacity="0.03"/><line x1="0" y1="800" x2="1600" y2="800" stroke="#ffffff" stroke-opacity="0.03"/><line x1="0" y1="880" x2="1600" y2="880" stroke="#ffffff" stroke-opacity="0.03"/><line x1="0" y1="960" x2="1600" y2="960" stroke="#ffffff" stroke-opacity="0.03"/></g>
<rect width="1600" height="1000" fill="url(#glow)"/>
<rect width="1600" height="1000" fill="url(#glow2)"/>
<g><circle cx="722" cy="873" r="1.4" fill="#d06aa8" opacity="0.20"/><circle cx="680" cy="216" r="1.9" fill="#d06aa8" opacity="0.18"/><circle cx="460" cy="261" r="2.3" fill="#d06aa8" opacity="0.34"/><circle cx="1080" cy="936" r="1.2" fill="#d06aa8" opacity="0.40"/><circle cx="339" cy="736" r="1.9" fill="#d06aa8" opacity="0.14"/><circle cx="1324" cy="323" r="1.7" fill="#d06aa8" opacity="0.18"/><circle cx="6" cy="2" r="1.8" fill="#d06aa8" opacity="0.56"/><circle cx="1165" cy="875" r="2.2" fill="#d06aa8" opacity="0.57"/><circle cx="1098" cy="929" r="1.3" fill="#d06aa8" opacity="0.52"/><circle cx="639" cy="54" r="0.9" fill="#d06aa8" opacity="0.39"/><circle cx="120" cy="105" r="0.8" fill="#d06aa8" opacity="0.40"/><circle cx="511" cy="824" r="1.8" fill="#d06aa8" opacity="0.17"/><circle cx="665" cy="844" r="1.8" fill="#d06aa8" opacity="0.11"/><circle cx="616" cy="875" r="1.0" fill="#d06aa8" opacity="0.37"/><circle cx="452" cy="645" r="0.4" fill="#d06aa8" opacity="0.36"/><circle cx="1419" cy="734" r="1.4" fill="#d06aa8" opacity="0.26"/><circle cx="424" cy="683" r="2.1" fill="#d06aa8" opacity="0.20"/><circle cx="1271" cy="911" r="1.1" fill="#d06aa8" opacity="0.22"/><circle cx="235" cy="341" r="2.4" fill="#d06aa8" opacity="0.49"/><circle cx="1096" cy="330" r="2.4" fill="#d06aa8" opacity="0.50"/><circle cx="316" cy="632" r="2.0" fill="#d06aa8" opacity="0.12"/><circle cx="1291" cy="827" r="0.5" fill="#d06aa8" opacity="0.20"/><circle cx="886" cy="969" r="2.2" fill="#d06aa8" opacity="0.36"/><circle cx="1525" cy="837" r="1.5" fill="#d06aa8" opacity="0.42"/><circle cx="1178" cy="459" r="1.7" fill="#d06aa8" opacity="0.44"/><circle cx="210" cy="941" r="1.0" fill="#d06aa8" opacity="0.47"/><circle cx="531" cy="610" r="0.4" fill="#d06aa8" opacity="0.56"/><circle cx="459" cy="464" r="1.1" fill="#d06aa8" opacity="0.15"/><circle cx="505" cy="798" r="1.8" fill="#d06aa8" opacity="0.57"/><circle cx="1381" cy="89" r="2.3" fill="#d06aa8" opacity="0.49"/><circle cx="1320" cy="851" r="1.1" fill="#d06aa8" opacity="0.48"/><circle cx="1286" cy="515" r="0.4" fill="#d06aa8" opacity="0.12"/><circle cx="20" cy="560" r="1.0" fill="#d06aa8" opacity="0.31"/><circle cx="1131" cy="33" r="1.6" fill="#d06aa8" opacity="0.21"/><circle cx="218" cy="161" r="2.0" fill="#d06aa8" opacity="0.41"/><circle cx="11" cy="197" r="2.3" fill="#d06aa8" opacity="0.46"/><circle cx="239" cy="159" r="1.3" fill="#d06aa8" opacity="0.10"/><circle cx="520" cy="192" r="2.4" fill="#d06aa8" opacity="0.48"/><circle cx="1542" cy="415" r="2.3" fill="#d06aa8" opacity="0.35"/><circle cx="377" cy="693" r="2.2" fill="#d06aa8" opacity="0.52"/></g>
</svg>