<svg xmlns="http://www.w3.org/2000/svg" width="1600" height="1000" viewBox="0 0 1600 1000">
<defs>
<linearGradient id="bg" x1="0" y1="0" x2="1" y2="1">
<stop offset="0" stop-color="#0a1f1a"/><stop offset="1" stop-color="#0a0a0c"/>
</linearGradient>
<radialGradient id="glow" cx="0.7" cy="0.25" r="0.8">
<stop offset="0" stop-color="#46c8b8" stop-opacity="0.35"/>
<stop offset="0.5" stop-color="#46c8b8" stop-opacity="0.08"/>
<stop offset="1" stop-color="#46c8b8" stop-opacity="0"/>
</radialGradient>
<radialGradient id="glow2" cx="0.2" cy="0.85" r="0.7">
<stop offset="0" stop-color="#46c8b8" stop-opacity="0.18"/>
<stop offset="1" stop-color="#46c8b8" stop-opacity="0"/>
</radialGradient>
</defs>
<rect width="1600" height="1000" fill="url(#bg)"/>
<g><line x1="0" y1="0" x2="0" y2="1000" stroke="#ffffff" stroke-opacity="0.03"/><line x1="80" y1="0" x2="80" y2="1000" stroke="#ffffff" stroke-opacity="0.03"/><line x1="160" y1="0" x2="160" y2="1000" stroke="#ffffff" stroke-opacity="0.03"/><line x1="240" y1="0" x2="240" y2="1000" stroke="#ffffff" stroke-opacity="0.03"/><line x1="320" y1="0" x2="320" y2="1000" stroke="#ffffff" stroke-opacity="0.03"/><line x1="400" y1="0" x2="400" y2="1000" stroke="#ffffff" stroke-opacity="0.03"/><line x1="480" y1="0" x2="480" y2="1000" stroke="#ffffff" stroke-opacity="0.03"/><line x1="560" y1="0" x2="560" y2="1000" stroke="#ffffff" stroke-opacity="0.03"/><line x1="640" y1="0" x2="640" y2="1000" stroke="#ffffff" stroke-opacity="0.03"/><line x1="720" y1="0" x2="720" y2="1000" stroke="#ffffff" stroke-opacity="0.03"/><line x1="800" y1="0" x2="800" y2="1000" stroke="#ffffff" stroke-opacity="0.03"/><line x1="880" y1="0" x2="880" y2="1000" stroke="#ffffff" stroke-opacity="0.03"/><line x1="960" y1="0" x2="960" y2="1000" stroke="#ffffff" stroke-opacity="0.03"/><line x1="1040" y1="0" x2="1040" y2="1000" stroke="#ffffff" stroke-opacity="0.03"/><line x1="1120" y1="0" x2="1120" y2="1000" stroke="#ffffff" stroke-opacity="0.03"/><line x1="1200" y1="0" x2="1200" y2="1000" stroke="#ffffff" stroke-opacity="0.03"/><line x1="1280" y1="0" x2="1280" y2="1000" stroke="#ffffff" stroke-opacity="0.03"/><line x1="1360" y1="0" x2="1360" y2="1000" stroke="#ffffff" stroke-opacity="0.03"/><line x1="1440" y1="0" x2="1440" y2="1000" stroke="#ffffff" stroke-opacity="0.03"/><line x1="1520" y1="0" x2="1520" y2="1000" stroke="#ffffff" stroke-opacity="0.03"/><line x1="1600" y1="0" x2="1600" y2="1000" stroke="#ffffff" stroke-opacity="0.03"/><line x1="0" y1="0" x2="1600" y2="0" stroke="#ffffff" stroke-opacity="0.03"/><line x1="0" y1="80" x2="1600" y2="80" stroke="#ffffff" stroke-opacity="0.03"/><line x1="0" y1="160" x2="1600" y2="160" stroke="#ffffff" stroke-opacity="0.03"/><line x1="0" y1="240" x2="1600" y2="240" stroke="#ffffff" stroke-opacity="0.03"/><line x1="0" y1="320" x2="1600" y2="320" stroke="#ffffff" stroke-opacity="0.03"/><line x1="0" y1="400" x2="1600" y2="400" stroke="#ffffff" stroke-opacity="0.03"/><line x1="0" y1="480" x2="1600" y2="480" stroke="#ffffff" stroke-opacity="0.03"/><line x1="0" y1="560" x2="1600" y2="560" stroke="#ffffff" stroke-opacity="0.03"/><line x1="0" y1="640" x2="1600" y2="640" stroke="#ffffff" stroke-opacity="0.03"/><line x1="0" y1="720" x2="1600" y2="720" stroke="#ffffff" stroke-opacity="0.03"/><line x1="0" y1="800" x2="1600" y2="800" stroke="#ffffff" stroke-opacity="0.03"/><line x1="0" y1="880" x2="1600" y2="880" stroke="#ffffff" stroke-opacity="0.03"/><line x1="0" y1="960" x2="1600" y2="960" stroke="#ffffff" stroke-opacity="0.03"/></g>
<rect width="1600" height="1000" fill="url(#glow)"/>
<rect width="1600" height="1000" fill="url(#glow2)"/>
<g><circle cx="1208" cy="940" r="1.8" fill="#46c8b8" opacity="0.45"/><circle cx="20" cy="921" r="1.2" fill="#46c8b8" opacity="0.14"/><circle cx="84" cy="634" r="0.9" fill="#46c8b8" opacity="0.37"/><circle cx="952" cy="954" r="0.7" fill="#46c8b8" opacity="0.23"/><circle cx="718" cy="547" r="0.5" fill="#46c8b8" opacity="0.39"/><circle cx="944" cy="871" r="2.2" fill="#46c8b8" opacity="0.15"/><circle cx="565" cy="145" r="2.2" fill="#46c8b8" opacity="0.53"/><circle cx="1573" cy="9" r="0.5" fill="#46c8b8" opacity="0.21"/><circle cx="1086" cy="651" r="2.2" fill="#46c8b8" opacity="0.56"/><circle cx="656" cy="691" r="2.2" fill="#46c8b8" opacity="0.43"/><circle cx="434" cy="120" r="2.1" fill="#46c8b8" opacity="0.40"/><circle cx="1359" cy="709" r="1.8" fill="#46c8b8" opacity="0.17"/><circle cx="160" cy="694" r="0.5" fill="#46c8b8" opacity="0.14"/><circle cx="250" cy="520" r="1.8" fill="#46c8b8" opacity="0.45"/><circle cx="665" cy="482" r="1.5" fill="#46c8b8" opacity="0.29"/><circle cx="1352" cy="538" r="1.3" fill="#46c8b8" opacity="0.17"/><circle cx="178" cy="142" r="2.1" fill="#46c8b8" opacity="0.34"/><circle cx="1368" cy="592" r="1.6" fill="#46c8b8" opacity="0.58"/><circle cx="972" cy="646" r="0.5" fill="#46c8b8" opacity="0.48"/><circle cx="538" cy="345" r="2.4" fill="#46c8b8" opacity="0.58"/><circle cx="277" cy="608" r="1.2" fill="#46c8b8" opacity="0.45"/><circle cx="1079" cy="746" r="2.0" fill="#46c8b8" opacity="0.43"/><circle cx="676" cy="712" r="1.1" fill="#46c8b8" opacity="0.39"/><circle cx="62" cy="645" r="0.5" fill="#46c8b8" opacity="0.34"/><circle cx="1532" cy="427" r="1.8" fill="#46c8b8" opacity="0.33"/><circle cx="561" cy="648" r="0.7" fill="#46c8b8" opacity="0.22"/><circle cx="137" cy="683" r="1.4" fill="#46c8b8" opacity="0.18"/><circle cx="1438" cy="464" r="0.8" fill="#46c8b8" opacity="0.11"/><circle cx="651" cy="416" r="1.0" fill="#46c8b8" opacity="0.35"/><circle cx="1065" cy="209" r="0.5" fill="#46c8b8" opacity="0.25"/><circle cx="1016" cy="641" r="0.7" fill="#46c8b8" opacity="0.29"/><circle cx="627" cy="616" r="2.1" fill="#46c8b8" opacity="0.32"/><circle cx="1483" cy="203" r="0.6" fill="#46c8b8" opacity="0.11"/><circle cx="457" cy="356" r="1.6" fill="#46c8b8" opacity="0.59"/><circle cx="705" cy="176" r="2.0" fill="#46c8b8" opacity="0.45"/><circle cx="279" cy="430" r="1.8" fill="#46c8b8" opacity="0.41"/><circle cx="479" cy="765" r="1.5" fill="#46c8b8" opacity="0.56"/><circle cx="541" cy="644" r="2.3" fill="#46c8b8" opacity="0.19"/><circle cx="1230" cy="144" r="1.5" fill="#46c8b8" opacity="0.21"/><circle cx="1333" cy="118" r="0.6" fill="#46c8b8" opacity="0.12"/></g>
</svg>